<svg height="24" viewBox="0 0 24 24" width="24" xmlns="http://www.w3.org/2000/svg"><path d="m12 4h-7c-1.66 0-3 1.34-3 3v8c0 1.66 1.34 3 3 3l-1 1v1h1l2-2.03 2 .03v-5h-5v-7.02l9 .02v2h2v-1c0-1.66-1.34-3-3-3zm-7 10c.55 0 1 .45 1 1s-.45 1-1 1-1-.45-1-1 .45-1 1-1zm15.57-4.34c-.14-.4-.52-.66-.97-.66h-7.19c-.46 0-.83.26-.98.66l-1.43 4.11.01 5.51c0 .38.31.72.69.72h.62c.38 0 .68-.38.68-.76v-1.24h8v1.24c0 .38.31.76.69.76h.61c.38 0 .69-.34.69-.72l.01-1.37v-4.14zm-8.16.34h7.19l1.03 3h-9.25zm-.41 6c-.55 0-1-.45-1-1s.45-1 1-1 1 .45 1 1-.45 1-1 1zm8 0c-.55 0-1-.45-1-1s.45-1 1-1 1 .45 1 1-.45 1-1 1z"/></svg>