<svg height="24" viewBox="0 0 24 24" width="24" xmlns="http://www.w3.org/2000/svg"><path d="m3 2h8v2h-8zm3 9h2v-4h3v-2h-8v2h3zm6.404 9.182 7.778-7.778 1.414 1.414-7.778 7.778z"/><circle cx="14.5" cy="14.5" r="1.5"/><circle cx="19.5" cy="19.5" r="1.5"/><path d="m15.5 11a2.5 2.5 0 0 0 2.5-2.5v-4.5h3v-2h-4v4.51c-.42-.32-.93-.51-1.5-.51a2.5 2.5 0 0 0 0 5zm-5.76 4.96-1.41 1.41-.71-.71.35-.35a2.499 2.499 0 0 0 -1.77-4.27 2.499 2.499 0 0 0 -1.77 4.27l.35.35-1.06 1.06c-.98.98-.98 2.56 0 3.54.5.5 1.14.74 1.78.74s1.28-.24 1.77-.73l1.06-1.06 1.41 1.41 1.41-1.41-1.41-1.41 1.41-1.41zm-3.89-1.76c.12-.12.26-.15.35-.15s.23.03.35.15c.19.2.19.51 0 .71l-.35.35-.35-.36a.501.501 0 0 1 0-.7zm0 5.65c-.12.12-.26.15-.35.15s-.23-.03-.35-.15a.513.513 0 0 1 0-.71l1.06-1.06.71.71z"/></svg>