<svg height="24" viewBox="0 0 24 24" width="24" xmlns="http://www.w3.org/2000/svg"><circle cx="9" cy="13" r="1.25"/><path d="m17.5 10c.75 0 1.47-.09 2.17-.24.21.71.33 1.46.33 2.24 0 1.22-.28 2.37-.77 3.4l1.49 1.49a9.981 9.981 0 0 0 1.28-4.89c0-5.52-4.48-10-10-10-1.78 0-3.44.47-4.89 1.28l5.33 5.33c1.49.88 3.21 1.39 5.06 1.39zm-15.61-6.28 2.19 2.19a9.958 9.958 0 0 0 -2.08 6.09c0 5.52 4.48 10 10 10 2.29 0 4.4-.78 6.09-2.08l2.19 2.19 1.41-1.41-18.38-18.39zm14.77 14.77a7.91 7.91 0 0 1 -4.66 1.51c-4.41 0-8-3.59-8-8 0-.05.01-.1 0-.14a9.946 9.946 0 0 0 3.64-2.39z"/></svg>