<svg height="24" viewBox="0 0 24 24" width="24" xmlns="http://www.w3.org/2000/svg"><path d="m19 3h-14c-1.1 0-2 .9-2 2v14c0 1.1.9 2 2 2h14c1.1 0 2-.9 2-2v-14c0-1.1-.9-2-2-2zm-6.25 4.08c.82.12 1.57.44 2.2.91l-2.2 2.2zm-1.5 0v3.11l-2.2-2.2c.63-.47 1.38-.79 2.2-.91zm-3.26 1.97 2.2 2.2h-3.11c.12-.82.44-1.57.91-2.2zm-.91 3.7h3.11l-2.2 2.2c-.47-.63-.79-1.38-.91-2.2zm4.17 4.17c-.82-.12-1.57-.44-2.2-.91l2.2-2.2zm.75-3.92c-.55 0-1-.45-1-1s.45-1 1-1 1 .45 1 1-.45 1-1 1zm.75 3.92v-3.11l2.2 2.2c-.63.47-1.38.79-2.2.91zm3.26-1.97-2.2-2.2h3.11c-.12.82-.44 1.57-.91 2.2zm-2.2-3.7 2.2-2.2c.47.64.79 1.39.91 2.2z"/></svg>