<svg height="24" viewBox="0 0 24 24" width="24" xmlns="http://www.w3.org/2000/svg"><path d="m18.92 9.01c-.2-.59-.76-1.01-1.42-1.01h-11c-.66 0-1.21.42-1.42 1.01l-2.08 5.99v8c0 .55.45 1 1 1h1c.55 0 1-.45 1-1v-1h12v1c0 .55.45 1 1 1h1c.55 0 1-.45 1-1v-8zm-12.07.99h10.29l1.04 3h-12.37zm-.85 7.5c0-.83.67-1.5 1.5-1.5s1.5.67 1.5 1.5-.67 1.5-1.5 1.5-1.5-.67-1.5-1.5zm9 0c0-.83.67-1.5 1.5-1.5s1.5.67 1.5 1.5-.67 1.5-1.5 1.5-1.5-.67-1.5-1.5zm-3-11.14-2.83-2.82 1.41-1.41 1.42 1.41 3.54-3.54 1.41 1.41z"/></svg>