<svg height="24" viewBox="0 0 24 24" width="24" xmlns="http://www.w3.org/2000/svg"><path d="m13.93 13.93-11.48-11.48-1.41 1.42 5.3 5.3-.2.23h-2.54c-.88 0-1.6.72-1.6 1.6v9.4c0 .88.72 1.6 1.6 1.6h12.8c.75 0 1.38-.52 1.55-1.22l2.18 2.18 1.41-1.41-3.54-3.55zm-3.93 6.07c-2.21 0-4-1.79-4-4 0-1.95 1.4-3.57 3.25-3.92l1.57 1.57c-.26-.09-.53-.15-.82-.15a2.5 2.5 0 0 0 0 5 2.5 2.5 0 0 0 2.5-2.5c0-.29-.06-.56-.15-.82l1.57 1.57a3.993 3.993 0 0 1 -3.92 3.25zm8-4.83-7.17-7.17h1.75l1.28 1.4h2.54c.88 0 1.6.72 1.6 1.6zm2.4-9.57h1.6l-3 5.4v-4h-1v-5h4z"/></svg>