<svg height="24" viewBox="0 0 24 24" width="24" xmlns="http://www.w3.org/2000/svg"><path d="m16 15h-2a1.003 1.003 0 0 1 -1.95.32c-.15-.44-.4-1.08-.93-1.61l-1.36-1.36c-.48-.48-.76-1.16-.76-1.85a2.5 2.5 0 0 1 4.95-.5h2.02c-.25-2.25-2.16-4-4.47-4-2.48 0-4.5 2.02-4.5 4.5 0 1.22.49 2.41 1.35 3.27l1.36 1.36c.17.17.31.44.44.82a3.013 3.013 0 0 0 2.85 2.05c1.65 0 3-1.35 3-3z"/><circle cx="13.5" cy="12.5" r="1.5"/><path d="m3.6 6.58 1.58 1.26c.35-.57.77-1.1 1.24-1.57l-1.57-1.25c-.47.47-.88 1-1.25 1.56zm5.86-2.16-.87-1.81c-.63.23-1.24.52-1.8.87l.87 1.81c.56-.36 1.16-.65 1.8-.87zm-4.97 4.84-1.96-.45c-.21.63-.36 1.28-.44 1.95l1.96.45a7.9 7.9 0 0 1 .44-1.95zm15.91-2.68a9.4 9.4 0 0 0 -1.25-1.56l-1.58 1.26c.48.47.89.99 1.24 1.57zm-16.36 6.21-1.96.45c.08.67.23 1.33.44 1.95l1.97-.45c-.22-.62-.38-1.27-.45-1.95zm13.17-9.31c-.57-.35-1.17-.64-1.8-.87l-.87 1.81c.64.22 1.24.51 1.8.87zm-4.21.59v-2.02c-.33-.03-.66-.05-1-.05s-.67.02-1 .05v2.02c.33-.04.66-.07 1-.07s.67.03 1 .07zm-2 15.86v2.02c.33.03.66.05 1 .05s.67-.02 1-.05v-2.02c-.33.04-.66.07-1 .07s-.67-.03-1-.07zm8.51-5.19 1.97.45c.21-.63.36-1.28.44-1.95l-1.96-.45c-.07.68-.23 1.33-.45 1.95zm.45-3.53 1.96-.45a9.69 9.69 0 0 0 -.44-1.95l-1.97.45c.22.62.38 1.27.45 1.95zm-2.38 6.52 1.58 1.26c.47-.48.88-1 1.25-1.56l-1.58-1.26a9.4 9.4 0 0 1 -1.25 1.56zm-10.79 2.79c.57.35 1.17.64 1.8.87l.87-1.81c-.64-.22-1.24-.51-1.8-.87zm7.75-.94.87 1.81c.63-.23 1.24-.52 1.8-.87l-.87-1.81c-.56.36-1.16.65-1.8.87zm-10.94-2.16a9.4 9.4 0 0 0 1.25 1.56l1.58-1.26a7.87 7.87 0 0 1 -1.24-1.57z"/></svg>