<svg height="24" viewBox="0 0 24 24" width="24" xmlns="http://www.w3.org/2000/svg"><path d="m2 17h20v2h-20zm1.15-4.05.85-1.48.85 1.48 1.3-.75-.85-1.48h1.7v-1.5h-1.7l.85-1.47-1.3-.75-.85 1.47-.85-1.47-1.3.75.85 1.47h-1.7v1.5h1.7l-.85 1.48zm6.7-.75 1.3.75.85-1.48.85 1.48 1.3-.75-.85-1.48h1.7v-1.5h-1.7l.85-1.47-1.3-.75-.85 1.47-.85-1.47-1.3.75.85 1.47h-1.7v1.5h1.7zm13.15-2.98h-1.7l.85-1.47-1.3-.75-.85 1.47-.85-1.47-1.3.75.85 1.47h-1.7v1.5h1.7l-.85 1.48 1.3.75.85-1.48.85 1.48 1.3-.75-.85-1.48h1.7z"/></svg>