<svg height="24" viewBox="0 0 24 24" width="24" xmlns="http://www.w3.org/2000/svg"><path d="m17.41 6.59-2.41-1.09 2.41-1.09 1.09-2.41 1.09 2.41 2.41 1.09-2.41 1.09-1.09 2.41zm3.87 6.13-.78-1.72-.78 1.72-1.72.78 1.72.78.78 1.72.78-1.72 1.72-.78zm-5.04 1.65 1.94 1.47-2.5 4.33-2.24-.94c-.2.13-.42.26-.64.37l-.3 2.4h-5l-.3-2.41c-.22-.11-.43-.23-.64-.37l-2.24.94-2.5-4.33 1.94-1.47c-.01-.11-.01-.24-.01-.36s0-.25.01-.37l-1.94-1.47 2.5-4.33 2.24.94c.2-.13.42-.26.64-.37l.3-2.4h5l.3 2.41c.22.11.43.23.64.37l2.24-.94 2.5 4.33-1.94 1.47c.01.12.01.24.01.37s0 .24-.01.36zm-3.24-.37c0-1.66-1.34-3-3-3s-3 1.34-3 3 1.34 3 3 3 3-1.34 3-3z"/></svg>