<svg height="24" viewBox="0 0 24 24" width="24" xmlns="http://www.w3.org/2000/svg"><path d="m15 1h-6v2h6zm4.03 6.39 1.42-1.42c-.43-.51-.9-.99-1.41-1.41l-1.42 1.42a8.962 8.962 0 0 0 -5.62-1.98c-4.97 0-9 4.03-9 9s4.02 9 9 9a8.994 8.994 0 0 0 7.03-14.61zm-7.03 12.61c-3.87 0-7-3.13-7-7s3.13-7 7-7 7 3.13 7 7-3.13 7-7 7zm-.32-5h-5.33a5.992 5.992 0 0 0 3.41 3.56l-.11-.06zm5.97-4a6.012 6.012 0 0 0 -3.34-3.54l-2.05 3.54zm-7.04 7.83c.45.11.91.17 1.39.17 1.34 0 2.57-.45 3.57-1.19l-2.11-3.9zm-3.06-9.84a5.965 5.965 0 0 0 -1.55 4.01c0 .34.04.67.09 1h4.72zm8.79 8.14a5.94 5.94 0 0 0 1.66-4.13c0-.34-.04-.67-.09-1h-4.34zm-3.01-9.98c-.43-.09-.87-.15-1.33-.15-1.4 0-2.69.49-3.71 1.29l2.32 3.56z"/></svg>