<svg height="24" viewBox="0 0 24 24" width="24" xmlns="http://www.w3.org/2000/svg"><path d="m21 9c-1.1 0-2-.9-2-2s2-4 2-4 2 2.9 2 4-.9 2-2 2zm-3.5-2c0-.73.41-1.71.92-2.66a9.965 9.965 0 0 0 -6.43-2.34c-5.52 0-9.99 4.48-9.99 10s4.47 10 9.99 10c5.53 0 10.01-4.48 10.01-10 0-.55-.06-1.09-.14-1.62a3.5 3.5 0 0 1 -.86.12c-1.93 0-3.5-1.57-3.5-3.5zm-1.88.38 1.06 1.06-1.06 1.06 1.06 1.06-1.06 1.06-2.12-2.12zm-8.3 1.06 1.06-1.06 2.12 2.12-2.12 2.12-1.06-1.06 1.06-1.06zm8.12 8.56c-.69-1.19-1.97-2-3.44-2s-2.75.81-3.44 2h-1.68c.3-.76.76-1.43 1.34-1.99l-2.98-1.71c-.45.26-1.01.28-1.49 0a1.501 1.501 0 0 1 1.5-2.6c.48.28.74.78.74 1.29l3.58 2.07c.73-.36 1.55-.56 2.43-.56 2.33 0 4.32 1.45 5.12 3.5z"/></svg>