<svg height="24" viewBox="0 0 24 24" width="24" xmlns="http://www.w3.org/2000/svg"><path d="m12.49 13-.93-1.86c-.37-.74-.07-1.64.67-2.01l.26-.13 5.73 5.46c.5.47.78 1.13.78 1.81v5.23a2.5 2.5 0 0 1 -2.5 2.5h-11c-.55 0-1-.45-1-1s.45-1 1-1h4.5v-1h-6c-.55 0-1-.45-1-1s.45-1 1-1h6v-1h-7c-.55 0-1-.45-1-1s.45-1 1-1h7v-1h-5.5c-.55 0-1-.45-1-1s.45-1 1-1zm-.71-5.88c-.84.4-1.17.62-1.63 1.19l-2.7-2.85a.996.996 0 1 1 1.45-1.37zm-2.14 2.09a3.46 3.46 0 0 0 -.2 1.79h-.86l-2.27-2.39a.987.987 0 0 1 .04-1.41.996.996 0 0 1 1.41.04zm10.69 4.7.88-.83c.5-.47.79-1.13.79-1.82v-7.91l-.27-.1c-.78-.28-1.64.12-1.92.9l-.71 1.96-5.5-5.8a.996.996 0 1 0 -1.45 1.37l3.79 3.99-.73.69-4.82-5.08a.996.996 0 1 0 -1.45 1.37l3.78 3.98 2.66 2.37 3.61 3.43.61.58c.29.27.53.57.73.9z"/></svg>