<svg height="24" viewBox="0 0 24 24" width="24" xmlns="http://www.w3.org/2000/svg"><path d="m6.4 7c-.34.55-.4.97-.4 1.38 0 .77 1 2.62 1 3.62 0 .95-.4 1.5-.4 1.5h-1.5s.4-.55.4-1.5c0-1-1-2.85-1-3.62 0-.41.06-.83.4-1.38zm5 0c-.34.55-.4.97-.4 1.38 0 .77 1 2.62 1 3.62 0 .95-.4 1.5-.4 1.5h1.5s.4-.55.4-1.5c0-1-1-2.85-1-3.62 0-.41.06-.83.4-1.38zm-3.25 0c-.34.55-.4.97-.4 1.38 0 .77 1 2.63 1 3.62 0 .95-.4 1.5-.4 1.5h1.5s.4-.55.4-1.5c0-1-1-2.85-1-3.62 0-.41.06-.83.4-1.38zm13.32-.5s.13-1.06.13-1.5c0-1.65-1.35-3-3-3-1.54 0-2.81 1.16-2.98 2.65l-1.09 10.35h-10.52c-.6 0-1.09.53-1 1.13.52 3.33 3.38 5.87 6.74 5.87 3.48 0 6.34-2.73 6.71-6.23l1.15-10.87c.05-.51.47-.9.99-.9.55 0 1 .45 1 1 0 .3-.1 1.25-.1 1.25z"/></svg>