<svg height="24" viewBox="0 0 24 24" width="24" xmlns="http://www.w3.org/2000/svg"><path d="m15.49 9.63c-.18-2.79-1.31-5.51-3.43-7.63a12.188 12.188 0 0 0 -3.55 7.63c1.28.68 2.46 1.56 3.49 2.63 1.03-1.06 2.21-1.94 3.49-2.63zm-6.5 2.65c-.14-.1-.3-.19-.45-.29.15.11.31.19.45.29zm6.42-.25c-.13.09-.27.16-.4.26.13-.1.27-.17.4-.26zm-3.41 3.42c-2.15-3.28-5.82-5.45-10-5.45 0 5.32 3.36 9.82 8.03 11.49.63.23 1.29.4 1.97.51.68-.12 1.33-.29 1.97-.51 4.67-1.67 8.03-6.17 8.03-11.49-4.18 0-7.85 2.17-10 5.45z"/></svg>