<svg height="24" viewBox="0 0 24 24" width="24" xmlns="http://www.w3.org/2000/svg"><path d="m12 2c-5.52 0-10 4.48-10 10s4.48 10 10 10 10-4.48 10-10-4.48-10-10-10zm1 3.3 1.35-.95a8.01 8.01 0 0 1 4.38 3.34l-.39 1.34-1.35.46-3.99-2.79zm-3.35-.95 1.35.95v1.4l-3.99 2.79-1.35-.46-.39-1.34a8.103 8.103 0 0 1 4.38-3.34zm-2.57 12.76-1.14.1a7.938 7.938 0 0 1 -1.94-5.21c0-.12.01-.23.02-.35l1-.73 1.38.48 1.46 4.34zm7.42 2.48c-.79.26-1.63.41-2.5.41s-1.71-.15-2.5-.41l-.69-1.49.64-1.1h5.11l.64 1.11zm-.23-4.59h-4.54l-1.35-4.02 3.62-2.54 3.63 2.54zm3.79 2.21-1.14-.1-.79-1.37 1.46-4.34 1.39-.47 1 .73c.01.11.02.22.02.34 0 1.99-.73 3.81-1.94 5.21z"/></svg>