<svg height="24" viewBox="0 0 24 24" width="24" xmlns="http://www.w3.org/2000/svg"><path d="m18.25 7.6-5.5-3.18a1.49 1.49 0 0 0 -1.5 0l-5.5 3.18c-.46.27-.75.76-.75 1.3v6.35c0 .54.29 1.03.75 1.3l5.5 3.18c.46.27 1.04.27 1.5 0l5.5-3.18c.46-.27.75-.76.75-1.3v-6.35c0-.54-.29-1.03-.75-1.3zm-11.25 7.36v-4.62l4 2.32v4.61zm5-4.03-4-2.32 4-2.31 4 2.31zm1 6.34v-4.61l4-2.32v4.62zm-6-15.27h-3.5c-.83 0-1.5.67-1.5 1.5v3.5h2v-3h3zm10 0h3.5c.83 0 1.5.67 1.5 1.5v3.5h-2v-3h-3zm-10 20h-3.5c-.83 0-1.5-.67-1.5-1.5v-3.5h2v3h3zm10 0h3.5c.83 0 1.5-.67 1.5-1.5v-3.5h-2v3h-3z"/></svg>