<svg width="512" height="512" viewBox="0 0 512 512" fill="none" xmlns="http://www.w3.org/2000/svg">
<g clip-path="url(#clip0_63_1918)">
<g clip-path="url(#clip1_63_1918)" filter="url(#filter0_d_63_1918)">
<path d="M231.57 28.748C246.687 20.0201 265.313 20.0201 280.43 28.748L440.591 121.217C455.708 129.945 465.021 146.075 465.021 163.531V348.469C465.021 365.925 455.708 382.055 440.591 390.783L280.43 483.252C265.313 491.98 246.687 491.98 231.57 483.252L71.4088 390.783C56.2917 382.055 46.9791 365.925 46.9791 348.469V163.531C46.9791 146.075 56.2917 129.945 71.4088 121.217L231.57 28.748Z" fill="white"/>
<path d="M46.9791 212.204L46.9791 250.272L355.299 71.9736L322.358 52.9554L46.9791 212.204Z" fill="#D40020"/>
<path d="M291.109 34.9136L280.43 28.7479C265.313 20.0201 246.687 20.0201 231.57 28.7479L71.4088 121.217C56.2917 129.945 46.9791 146.075 46.9791 163.531V176.091L291.109 34.9136Z" fill="#D40020"/>
<path d="M46.9791 348.469V286.385L386.548 90.0155L419.489 109.034L255.897 203.637V239.75L449.487 127.799C457.735 135.491 463.111 145.854 464.6 157.127L66.3524 387.429C54.2423 378.267 46.9791 363.885 46.9791 348.469Z" fill="#D40020"/>
<path d="M465.021 192.996V163.426L465.021 163.531V348.469C465.021 365.925 455.708 382.055 440.591 390.783L280.43 483.252C265.313 491.98 246.687 491.98 231.57 483.252L225.606 479.808L465.021 341.357V305.244L194.357 461.767L161.416 442.748L465.021 267.177V231.064L130.167 424.707L97.2262 405.688L465.021 192.996Z" fill="#D40020"/>
<path d="M71.4088 121.217C56.2917 129.945 46.9791 146.075 46.9791 163.531V348.469C46.9791 352.265 47.4194 355.997 48.2638 359.605L256 239.668L256 22.202C247.568 22.202 239.135 24.3824 231.579 28.7431C231.576 28.7447 231.573 28.7463 231.57 28.7479L71.4088 121.217Z" fill="#006FFF"/>
</g>
</g>
<defs>
<filter id="filter0_d_63_1918" x="0" y="5" width="512" height="512" filterUnits="userSpaceOnUse" color-interpolation-filters="sRGB">
<feFlood flood-opacity="0" result="BackgroundImageFix"/>
<feColorMatrix in="SourceAlpha" type="matrix" values="0 0 0 0 0 0 0 0 0 0 0 0 0 0 0 0 0 0 127 0" result="hardAlpha"/>
<feOffset dy="5"/>
<feGaussianBlur stdDeviation="10"/>
<feColorMatrix type="matrix" values="0 0 0 0 0 0 0 0 0 0 0 0 0 0 0 0 0 0 0.17 0"/>
<feBlend mode="normal" in2="BackgroundImageFix" result="effect1_dropShadow_63_1918"/>
<feBlend mode="normal" in="SourceGraphic" in2="effect1_dropShadow_63_1918" result="shape"/>
</filter>
<clipPath id="clip0_63_1918">
<rect width="512" height="512" fill="white"/>
</clipPath>
<clipPath id="clip1_63_1918">
<rect width="472" height="472" fill="white" transform="translate(20 20)"/>
</clipPath>
</defs>
</svg>
