<svg width="192" height="192" viewBox="0 0 192 192" fill="none" xmlns="http://www.w3.org/2000/svg">
<g clip-path="url(#clip0_63_1920)" filter="url(#filter0_d_63_1920)">
<path d="M87.0976 13.1879C92.6064 10.0074 99.3935 10.0074 104.902 13.1879L163.266 46.8843C168.775 50.0648 172.169 55.9426 172.169 62.3036V129.696C172.169 136.057 168.775 141.935 163.266 145.116L104.902 178.812C99.3935 181.993 92.6064 181.993 87.0976 178.812L28.7337 145.116C23.2249 141.935 19.8314 136.057 19.8314 129.696V62.3036C19.8314 55.9426 23.2249 50.0648 28.7337 46.8843L87.0976 13.1879Z" fill="white"/>
<path d="M19.8314 80.0406L19.8314 93.9127L132.185 28.9396L120.181 22.0092L19.8314 80.0406Z" fill="#D40020"/>
<path d="M108.794 15.4347L104.902 13.1879C99.3935 10.0074 92.6064 10.0074 87.0976 13.1879L28.7337 46.8843C23.2249 50.0648 19.8314 55.9426 19.8314 62.3036V66.8808L108.794 15.4347Z" fill="#D40020"/>
<path d="M19.8314 129.696V107.072L143.573 35.5142L155.576 42.4445L95.9624 76.9187V90.0785L166.508 49.2827C169.514 52.0859 171.473 55.8622 172.015 59.9699L26.8911 143.894C22.4781 140.555 19.8314 135.314 19.8314 129.696Z" fill="#D40020"/>
<path d="M172.169 73.0411V62.2653L172.169 62.3036V129.696C172.169 136.057 168.775 141.935 163.266 145.116L104.902 178.812C99.3935 181.993 92.6064 181.993 87.0976 178.812L84.9242 177.557L172.169 127.105V113.945L73.5367 170.983L61.533 164.052L172.169 100.073V86.9131L50.1455 157.478L38.1417 150.547L172.169 73.0411Z" fill="#D40020"/>
<path d="M28.7337 46.8843C23.2249 50.0648 19.8314 55.9426 19.8314 62.3036V129.696C19.8314 131.08 19.9918 132.44 20.2995 133.754L96 90.0486L96 10.8025C92.9271 10.8025 89.8543 11.597 87.1007 13.1861C87.0997 13.1867 87.0987 13.1873 87.0976 13.1879L28.7337 46.8843Z" fill="#006FFF"/>
</g>
<defs>
<filter id="filter0_d_63_1920" x="2.71186" y="4.5339" width="186.576" height="186.576" filterUnits="userSpaceOnUse" color-interpolation-filters="sRGB">
<feFlood flood-opacity="0" result="BackgroundImageFix"/>
<feColorMatrix in="SourceAlpha" type="matrix" values="0 0 0 0 0 0 0 0 0 0 0 0 0 0 0 0 0 0 127 0" result="hardAlpha"/>
<feOffset dy="1.82203"/>
<feGaussianBlur stdDeviation="3.64407"/>
<feColorMatrix type="matrix" values="0 0 0 0 0 0 0 0 0 0 0 0 0 0 0 0 0 0 0.17 0"/>
<feBlend mode="normal" in2="BackgroundImageFix" result="effect1_dropShadow_63_1920"/>
<feBlend mode="normal" in="SourceGraphic" in2="effect1_dropShadow_63_1920" result="shape"/>
</filter>
<clipPath id="clip0_63_1920">
<rect width="172" height="172" fill="white" transform="translate(10 10)"/>
</clipPath>
</defs>
</svg>
