<svg width="16" height="16" viewBox="0 0 16 16" fill="none" xmlns="http://www.w3.org/2000/svg">
<g clip-path="url(#clip0_63_1922)">
<g clip-path="url(#clip1_63_1922)">
<g clip-path="url(#clip2_63_1922)">
<g clip-path="url(#clip3_63_1922)">
<g clip-path="url(#clip4_63_1922)">
<path d="M7.17188 0.296599C7.68432 0.000738775 8.31568 0.000739034 8.82812 0.2966L14.2573 3.43115C14.7698 3.72701 15.0855 4.27378 15.0855 4.86551V11.1346C15.0855 11.7263 14.7698 12.2731 14.2573 12.569L8.82812 15.7035C8.31568 15.9994 7.68432 15.9994 7.17188 15.7035L1.74267 12.569C1.23023 12.2731 0.914547 11.7263 0.914547 11.1346V4.86551C0.914547 4.27378 1.23023 3.72701 1.74267 3.43115L7.17188 0.296599Z" fill="white"/>
</g>
<mask id="mask0_63_1922" style="mask-type:alpha" maskUnits="userSpaceOnUse" x="0" y="0" width="16" height="16">
<g clip-path="url(#clip5_63_1922)">
<path d="M7.17188 0.296599C7.68432 0.000738775 8.31568 0.000739034 8.82812 0.2966L14.2573 3.43115C14.7698 3.72701 15.0855 4.27378 15.0855 4.86551V11.1346C15.0855 11.7263 14.7698 12.2731 14.2573 12.569L8.82812 15.7035C8.31568 15.9994 7.68432 15.9994 7.17188 15.7035L1.74267 12.569C1.23023 12.2731 0.914547 11.7263 0.914547 11.1346V4.86551C0.914547 4.27378 1.23023 3.72701 1.74267 3.43115L7.17188 0.296599Z" fill="white"/>
</g>
</mask>
<g mask="url(#mask0_63_1922)">
<rect x="11.3813" y="-2.14331" width="1.09375" height="16" transform="rotate(60 11.3813 -2.14331)" fill="#EF0028"/>
<rect x="17.9282" y="9.19617" width="1.09375" height="16" transform="rotate(60 17.9282 9.19617)" fill="#EF0028"/>
<rect x="16.8501" y="7.32886" width="1.0625" height="16" transform="rotate(60 16.8501 7.32886)" fill="#EF0028"/>
<rect x="15.7407" y="5.40735" width="1.09375" height="16" transform="rotate(60 15.7407 5.40735)" fill="#EF0028"/>
<rect x="14.6626" y="3.53992" width="1.0625" height="16" transform="rotate(60 14.6626 3.53992)" fill="#EF0028"/>
<rect x="12.4751" y="-0.248901" width="1.0625" height="16" transform="rotate(60 12.4751 -0.248901)" fill="#EF0028"/>
<rect x="13.5688" y="1.64551" width="1.09375" height="16" transform="rotate(60 13.5688 1.64551)" fill="#EF0028"/>
<g opacity="0.95" clip-path="url(#clip6_63_1922)" filter="url(#filter0_d_63_1922)">
<path d="M0.140629 -3.73465C0.653074 -4.03051 1.28443 -4.03051 1.79688 -3.73465L7.22608 -0.600098C7.73853 -0.304238 8.05421 0.242535 8.05421 0.834256L8.05421 7.10336C8.05421 7.69508 7.73853 8.24185 7.22608 8.53771L1.79688 11.6723C1.28443 11.9681 0.653074 11.9681 0.140628 11.6723L-5.28857 8.53771C-5.80102 8.24185 -6.1167 7.69508 -6.1167 7.10336L-6.1167 0.834255C-6.1167 0.242534 -5.80102 -0.304238 -5.28857 -0.600099L0.140629 -3.73465Z" fill="#0083FF"/>
</g>
</g>
</g>
</g>
</g>
</g>
<defs>
<filter id="filter0_d_63_1922" x="-7.78125" y="-4.65625" width="17.5" height="17.5" filterUnits="userSpaceOnUse" color-interpolation-filters="sRGB">
<feFlood flood-opacity="0" result="BackgroundImageFix"/>
<feColorMatrix in="SourceAlpha" type="matrix" values="0 0 0 0 0 0 0 0 0 0 0 0 0 0 0 0 0 0 127 0" result="hardAlpha"/>
<feOffset dy="0.125"/>
<feGaussianBlur stdDeviation="0.375"/>
<feColorMatrix type="matrix" values="0 0 0 0 0.117075 0 0 0 0 0 0 0 0 0 0.2625 0 0 0 1 0"/>
<feBlend mode="color-burn" in2="BackgroundImageFix" result="effect1_dropShadow_63_1922"/>
<feBlend mode="normal" in="SourceGraphic" in2="effect1_dropShadow_63_1922" result="shape"/>
</filter>
<clipPath id="clip0_63_1922">
<rect width="16" height="16" fill="white"/>
</clipPath>
<clipPath id="clip1_63_1922">
<rect width="16" height="16" fill="white"/>
</clipPath>
<clipPath id="clip2_63_1922">
<rect width="16" height="16" fill="white"/>
</clipPath>
<clipPath id="clip3_63_1922">
<rect width="16" height="16" fill="white"/>
</clipPath>
<clipPath id="clip4_63_1922">
<rect width="16" height="16" fill="white"/>
</clipPath>
<clipPath id="clip5_63_1922">
<rect width="16" height="16" fill="white"/>
</clipPath>
<clipPath id="clip6_63_1922">
<rect width="16" height="16" fill="white" transform="translate(-7.03125 -4.03125)"/>
</clipPath>
</defs>
</svg>
