<svg width="124" height="124" viewBox="0 0 124 124" fill="none" xmlns="http://www.w3.org/2000/svg">
<g clip-path="url(#clip0_64_19251)">
<g clip-path="url(#clip1_64_19251)">
<g clip-path="url(#clip2_64_19251)">
<g clip-path="url(#clip3_64_19251)">
<path d="M55.582 2.29819C59.5535 0.00526951 64.4465 0.00526998 68.418 2.29819L110.494 26.591C114.466 28.8839 116.912 33.1214 116.912 37.7072V86.2928C116.912 90.8786 114.466 95.1161 110.494 97.409L68.418 121.702C64.4465 123.995 59.5535 123.995 55.582 121.702L13.5057 97.409C9.53426 95.1161 7.08774 90.8786 7.08774 86.2928V37.7072C7.08774 33.1214 9.53426 28.8839 13.5057 26.591L55.582 2.29819Z" fill="white"/>
</g>
<mask id="mask0_64_19251" style="mask-type:alpha" maskUnits="userSpaceOnUse" x="0" y="0" width="124" height="124">
<g clip-path="url(#clip4_64_19251)">
<path d="M55.582 2.29819C59.5535 0.00526951 64.4465 0.00526998 68.418 2.29819L110.494 26.591C114.466 28.8839 116.912 33.1214 116.912 37.7072V86.2928C116.912 90.8786 114.466 95.1161 110.494 97.409L68.418 121.702C64.4465 123.995 59.5535 123.995 55.582 121.702L13.5057 97.409C9.53426 95.1161 7.08774 90.8786 7.08774 86.2928V37.7072C7.08774 33.1214 9.53426 28.8839 13.5057 26.591L55.582 2.29819Z" fill="white"/>
</g>
</mask>
<g mask="url(#mask0_64_19251)">
<rect x="88.2053" y="-16.6111" width="8.47656" height="124" transform="rotate(60 88.2053 -16.6111)" fill="#EF0028"/>
<rect x="138.944" y="71.2703" width="8.47656" height="124" transform="rotate(60 138.944 71.2703)" fill="#EF0028"/>
<rect x="130.588" y="56.7982" width="8.23438" height="124" transform="rotate(60 130.588 56.7982)" fill="#EF0028"/>
<rect x="121.991" y="41.9066" width="8.47656" height="124" transform="rotate(60 121.991 41.9066)" fill="#EF0028"/>
<rect x="113.635" y="27.4345" width="8.23438" height="124" transform="rotate(60 113.635 27.4345)" fill="#EF0028"/>
<rect x="96.6819" y="-1.92926" width="8.23438" height="124" transform="rotate(60 96.6819 -1.92926)" fill="#EF0028"/>
<rect x="105.158" y="12.7526" width="8.47656" height="124" transform="rotate(60 105.158 12.7526)" fill="#EF0028"/>
<g opacity="0.95" clip-path="url(#clip5_64_19251)" filter="url(#filter0_d_64_19251)">
<path d="M1.08987 -28.9439C5.06132 -31.2369 9.95435 -31.2369 13.9258 -28.9439L56.0021 -4.65116C59.9736 -2.35824 62.4201 1.87925 62.4201 6.46508L62.4201 55.0506C62.4201 59.6365 59.9736 63.874 56.0021 66.1669L13.9258 90.4597C9.95435 92.7526 5.06132 92.7526 1.08987 90.4597L-40.9865 66.1669C-44.9579 63.874 -47.4044 59.6365 -47.4044 55.0506L-47.4044 6.46508C-47.4044 1.87924 -44.9579 -2.35824 -40.9865 -4.65116L1.08987 -28.9439Z" fill="#0083FF"/>
</g>
</g>
</g>
</g>
</g>
<defs>
<filter id="filter0_d_64_19251" x="-60.3047" y="-36.0859" width="135.625" height="135.625" filterUnits="userSpaceOnUse" color-interpolation-filters="sRGB">
<feFlood flood-opacity="0" result="BackgroundImageFix"/>
<feColorMatrix in="SourceAlpha" type="matrix" values="0 0 0 0 0 0 0 0 0 0 0 0 0 0 0 0 0 0 127 0" result="hardAlpha"/>
<feOffset dy="0.96875"/>
<feGaussianBlur stdDeviation="2.90625"/>
<feColorMatrix type="matrix" values="0 0 0 0 0.117075 0 0 0 0 0 0 0 0 0 0.2625 0 0 0 1 0"/>
<feBlend mode="color-burn" in2="BackgroundImageFix" result="effect1_dropShadow_64_19251"/>
<feBlend mode="normal" in="SourceGraphic" in2="effect1_dropShadow_64_19251" result="shape"/>
</filter>
<clipPath id="clip0_64_19251">
<rect width="124" height="124" fill="white"/>
</clipPath>
<clipPath id="clip1_64_19251">
<rect width="124" height="124" fill="white"/>
</clipPath>
<clipPath id="clip2_64_19251">
<rect width="124" height="124" fill="white"/>
</clipPath>
<clipPath id="clip3_64_19251">
<rect width="124" height="124" fill="white"/>
</clipPath>
<clipPath id="clip4_64_19251">
<rect width="124" height="124" fill="white"/>
</clipPath>
<clipPath id="clip5_64_19251">
<rect width="124" height="124" fill="white" transform="translate(-54.4922 -31.2421)"/>
</clipPath>
</defs>
</svg>
