<svg width="124" height="124" viewBox="0 0 124 124" fill="none" xmlns="http://www.w3.org/2000/svg">
<g clip-path="url(#clip0_64_19251)">
<g clip-path="url(#clip1_64_19251)">
<path d="M55.582 2.29819C59.5535 0.00526963 64.4465 0.00526939 68.418 2.29819L110.494 26.591C114.466 28.8839 116.912 33.1214 116.912 37.7072V86.2928C116.912 90.8786 114.466 95.1161 110.494 97.409L68.418 121.702C64.4465 123.995 59.5535 123.995 55.582 121.702L13.5057 97.409C9.53425 95.1161 7.08774 90.8786 7.08774 86.2928V37.7072C7.08774 33.1214 9.53426 28.8839 13.5057 26.591L55.582 2.29819Z" fill="white"/>
<path d="M62 28.7399L88.087 13.6541L79.4331 8.65777L62 18.7392V28.7399Z" fill="#EF0038"/>
<path d="M71.2235 3.91796L68.418 2.29818C66.4322 1.15172 64.2161 0.578492 62 0.578491V9.25183L71.2235 3.91796Z" fill="#EF0038"/>
<path d="M7.42503 89.2173L61.9729 48.2437L62 38.2272L96.2965 18.3939L104.95 23.3902L61.9729 48.2437L7.42503 89.2173L112.831 28.3201C114.998 30.341 116.411 33.0634 116.802 36.0248L12.1773 96.528C9.77889 94.7134 8.10413 92.1194 7.42503 89.2173Z" fill="#EF0038"/>
<path d="M116.912 45.4482V37.6796L116.912 37.7072V86.2928C116.912 90.8786 114.466 95.1161 110.494 97.409L68.418 121.702C64.4465 123.995 59.5535 123.995 55.582 121.702L54.0151 120.797L116.912 84.4244V74.937L45.8056 116.057L37.1517 111.061L116.912 64.9363V55.4489L28.9421 106.321L20.2882 101.325L116.912 45.4482Z" fill="#EF0038"/>
<path d="M13.5057 26.591C9.53426 28.8839 7.08774 33.1214 7.08774 37.7072V86.2928C7.08774 87.2898 7.20339 88.2704 7.42523 89.2182L55.9453 61.2051C59.692 59.0419 62 55.0443 62 50.718L62 0.578491C59.7847 0.578491 57.5694 1.1513 55.5842 2.29691C55.5835 2.29733 55.5828 2.29776 55.582 2.29818L13.5057 26.591Z" fill="#006FFF"/>
</g>
</g>
<defs>
<clipPath id="clip0_64_19251">
<rect width="124" height="124" fill="white"/>
</clipPath>
<clipPath id="clip1_64_19251">
<rect width="124" height="124" fill="white"/>
</clipPath>
</defs>
</svg>
