<svg width="32" height="32" viewBox="0 0 32 32" fill="none" xmlns="http://www.w3.org/2000/svg">
<g clip-path="url(#clip0_63_1921)">
<g clip-path="url(#clip1_63_1921)">
<g clip-path="url(#clip2_63_1921)">
<g clip-path="url(#clip3_63_1921)">
<g clip-path="url(#clip4_63_1921)">
<path d="M14.3438 0.593077C15.3686 0.00135556 16.6314 0.00135601 17.6563 0.593077L28.5147 6.86218C29.5396 7.4539 30.1709 8.54745 30.1709 9.73089V22.2691C30.1709 23.4525 29.5396 24.5461 28.5147 25.1378L17.6563 31.4069C16.6314 31.9986 15.3686 31.9986 14.3438 31.4069L3.48534 25.1378C2.46045 24.5461 1.82909 23.4525 1.82909 22.2691V9.73089C1.82909 8.54745 2.46045 7.4539 3.48534 6.86218L14.3438 0.593077Z" fill="white"/>
</g>
<mask id="mask0_63_1921" style="mask-type:alpha" maskUnits="userSpaceOnUse" x="0" y="0" width="32" height="32">
<g clip-path="url(#clip5_63_1921)">
<path d="M14.3438 0.593077C15.3686 0.00135556 16.6314 0.00135601 17.6563 0.593077L28.5147 6.86218C29.5396 7.4539 30.1709 8.54745 30.1709 9.73089V22.2691C30.1709 23.4525 29.5396 24.5461 28.5147 25.1378L17.6563 31.4069C16.6314 31.9986 15.3686 31.9986 14.3438 31.4069L3.48534 25.1378C2.46045 24.5461 1.82909 23.4525 1.82909 22.2691V9.73089C1.82909 8.54745 2.46045 7.4539 3.48534 6.86218L14.3438 0.593077Z" fill="white"/>
</g>
</mask>
<g mask="url(#mask0_63_1921)">
<rect x="22.7627" y="-4.28674" width="2.1875" height="32" transform="rotate(60 22.7627 -4.28674)" fill="#EF0028"/>
<rect x="35.8564" y="18.3923" width="2.1875" height="32" transform="rotate(60 35.8564 18.3923)" fill="#EF0028"/>
<rect x="33.7002" y="14.6576" width="2.125" height="32" transform="rotate(60 33.7002 14.6576)" fill="#EF0028"/>
<rect x="31.4814" y="10.8146" width="2.1875" height="32" transform="rotate(60 31.4814 10.8146)" fill="#EF0028"/>
<rect x="29.3252" y="7.0799" width="2.125" height="32" transform="rotate(60 29.3252 7.0799)" fill="#EF0028"/>
<rect x="24.9502" y="-0.497864" width="2.125" height="32" transform="rotate(60 24.9502 -0.497864)" fill="#EF0028"/>
<rect x="27.1377" y="3.29095" width="2.1875" height="32" transform="rotate(60 27.1377 3.29095)" fill="#EF0028"/>
<g opacity="0.95" clip-path="url(#clip6_63_1921)" filter="url(#filter0_d_63_1921)">
<path d="M0.281258 -7.46942C1.30615 -8.06114 2.56887 -8.06114 3.59376 -7.46942L14.4522 -1.20032C15.4771 -0.608597 16.1084 0.484948 16.1084 1.66839L16.1084 14.2066C16.1084 15.39 15.4771 16.4836 14.4522 17.0753L3.59376 23.3444C2.56886 23.9361 1.30615 23.9361 0.281257 23.3444L-10.5772 17.0753C-11.602 16.4836 -12.2334 15.39 -12.2334 14.2066L-12.2334 1.66839C-12.2334 0.484947 -11.602 -0.608598 -10.5772 -1.20032L0.281258 -7.46942Z" fill="#0083FF"/>
</g>
</g>
</g>
</g>
</g>
</g>
<defs>
<filter id="filter0_d_63_1921" x="-15.5625" y="-9.3125" width="35" height="35" filterUnits="userSpaceOnUse" color-interpolation-filters="sRGB">
<feFlood flood-opacity="0" result="BackgroundImageFix"/>
<feColorMatrix in="SourceAlpha" type="matrix" values="0 0 0 0 0 0 0 0 0 0 0 0 0 0 0 0 0 0 127 0" result="hardAlpha"/>
<feOffset dy="0.25"/>
<feGaussianBlur stdDeviation="0.75"/>
<feColorMatrix type="matrix" values="0 0 0 0 0.117075 0 0 0 0 0 0 0 0 0 0.2625 0 0 0 1 0"/>
<feBlend mode="color-burn" in2="BackgroundImageFix" result="effect1_dropShadow_63_1921"/>
<feBlend mode="normal" in="SourceGraphic" in2="effect1_dropShadow_63_1921" result="shape"/>
</filter>
<clipPath id="clip0_63_1921">
<rect width="32" height="32" fill="white"/>
</clipPath>
<clipPath id="clip1_63_1921">
<rect width="32" height="32" fill="white"/>
</clipPath>
<clipPath id="clip2_63_1921">
<rect width="32" height="32" fill="white"/>
</clipPath>
<clipPath id="clip3_63_1921">
<rect width="32" height="32" fill="white"/>
</clipPath>
<clipPath id="clip4_63_1921">
<rect width="32" height="32" fill="white"/>
</clipPath>
<clipPath id="clip5_63_1921">
<rect width="32" height="32" fill="white"/>
</clipPath>
<clipPath id="clip6_63_1921">
<rect width="32" height="32" fill="white" transform="translate(-14.0625 -8.0625)"/>
</clipPath>
</defs>
</svg>
