<svg width="16" height="16" viewBox="0 0 16 16" fill="none" xmlns="http://www.w3.org/2000/svg">
<g clip-path="url(#clip0_63_1922)">
<g clip-path="url(#clip1_63_1922)">
<g clip-path="url(#clip2_63_1922)">
<path d="M7.17188 0.296599C7.68432 0.000738775 8.31568 0.000738988 8.82812 0.2966L14.2573 3.43115C14.7698 3.72701 15.0855 4.27378 15.0855 4.86551V11.1346C15.0855 11.7263 14.7698 12.2731 14.2573 12.569L8.82812 15.7035C8.31568 15.9994 7.68432 15.9994 7.17187 15.7035L1.74267 12.569C1.23023 12.2731 0.914547 11.7263 0.914547 11.1346V4.86551C0.914547 4.27378 1.23023 3.72701 1.74267 3.43115L7.17188 0.296599Z" fill="white"/>
<path d="M0.914547 6.51534L0.914547 7.80576L11.3661 1.76176L10.2494 1.11707L0.914547 6.51534Z" fill="#D40020"/>
<path d="M9.19013 0.505485L8.82812 0.29648C8.31568 0.000619923 7.68432 0.000619714 7.17188 0.29648L1.74267 3.43103C1.23023 3.72689 0.914547 4.27366 0.914547 4.86539V5.29117L9.19013 0.505485Z" fill="#D40020"/>
<path d="M0.914547 11.1345V9.02993L12.4254 2.37335L13.542 3.01803L7.9965 6.22493V7.4491L14.5589 3.65414C14.8385 3.9149 15.0207 4.26618 15.0712 4.6483L1.57127 12.4552C1.16076 12.1446 0.914547 11.6571 0.914547 11.1345Z" fill="#D40020"/>
<path d="M15.0854 5.86422V4.86182L15.0855 4.86539V11.1345C15.0855 11.7262 14.7698 12.273 14.2573 12.5688L8.82812 15.7034C8.31568 15.9993 7.68432 15.9993 7.17187 15.7034L6.96969 15.5867L15.0854 10.8934V9.66923L5.91039 14.9751L4.79377 14.3304L15.0854 8.37881V7.15464L3.73446 13.7188L2.61784 13.0741L15.0854 5.86422Z" fill="#D40020"/>
<path d="M1.74267 3.43103C1.23023 3.72689 0.914547 4.27366 0.914547 4.86539V11.1345C0.914547 11.2631 0.92947 11.3897 0.958094 11.512L8 7.44631L8 0.074585C7.71415 0.074585 7.42831 0.148495 7.17216 0.296316C7.17206 0.296371 7.17197 0.296426 7.17188 0.29648L1.74267 3.43103Z" fill="#006FFF"/>
</g>
</g>
</g>
<defs>
<clipPath id="clip0_63_1922">
<rect width="16" height="16" fill="white"/>
</clipPath>
<clipPath id="clip1_63_1922">
<rect width="16" height="16" fill="white"/>
</clipPath>
<clipPath id="clip2_63_1922">
<rect width="16" height="16" fill="white"/>
</clipPath>
</defs>
</svg>
