<svg width="32" height="32" viewBox="0 0 32 32" fill="none" xmlns="http://www.w3.org/2000/svg">
<g clip-path="url(#clip0_63_1921)">
<g clip-path="url(#clip1_63_1921)">
<g clip-path="url(#clip2_63_1921)">
<path d="M14.3438 0.593077C15.3686 0.00135555 16.6314 0.00135598 17.6563 0.593077L28.5147 6.86218C29.5396 7.4539 30.1709 8.54745 30.1709 9.73089V22.2691C30.1709 23.4525 29.5396 24.5461 28.5147 25.1378L17.6563 31.4069C16.6314 31.9986 15.3686 31.9986 14.3438 31.4069L3.48534 25.1378C2.46045 24.5461 1.82909 23.4525 1.82909 22.2691V9.73089C1.82909 8.54745 2.46045 7.4539 3.48534 6.86218L14.3438 0.593077Z" fill="white"/>
<path d="M16 7.41676L22.7321 3.52364L20.4989 2.23427L16 4.83591V7.41676Z" fill="#EF0038"/>
<path d="M18.3803 1.01109L17.6563 0.593083C17.1438 0.297223 16.5719 0.149292 16 0.149292V2.38757L18.3803 1.01109Z" fill="#EF0038"/>
<path d="M1.91614 23.0238L15.993 12.45L16 9.8651L24.8507 4.74681L27.084 6.03619L15.993 12.45L1.91614 23.0238L29.1178 7.30841C29.6769 7.82993 30.0415 8.53249 30.1424 9.29672L3.14254 24.9105C2.52359 24.4422 2.09139 23.7728 1.91614 23.0238Z" fill="#EF0038"/>
<path d="M30.1709 11.7286V9.72377L30.1709 9.7309V22.2691C30.1709 23.4525 29.5396 24.5461 28.5147 25.1378L17.6563 31.4069C16.6314 31.9986 15.3686 31.9986 14.3438 31.4069L13.9394 31.1735L30.1709 21.7869V19.3386L11.8208 29.9503L9.58753 28.6609L30.1709 16.7578V14.3094L7.46893 27.4377L5.23567 26.1484L30.1709 11.7286Z" fill="#EF0038"/>
<path d="M3.48534 6.86219C2.46045 7.45391 1.82909 8.54745 1.82909 9.7309V22.2691C1.82909 22.5264 1.85894 22.7795 1.91619 23.024L14.4375 15.7949C15.4044 15.2366 16 14.205 16 13.0885L16 0.149292C15.4283 0.149292 14.8566 0.297113 14.3443 0.592754C14.3441 0.592864 14.3439 0.592973 14.3438 0.593083L3.48534 6.86219Z" fill="#006FFF"/>
</g>
</g>
</g>
<defs>
<clipPath id="clip0_63_1921">
<rect width="32" height="32" fill="white"/>
</clipPath>
<clipPath id="clip1_63_1921">
<rect width="32" height="32" fill="white"/>
</clipPath>
<clipPath id="clip2_63_1921">
<rect width="32" height="32" fill="white"/>
</clipPath>
</defs>
</svg>
