<svg width="512" height="512" viewBox="0 0 512 512" fill="none" xmlns="http://www.w3.org/2000/svg">
<g clip-path="url(#clip0_68_1974)">
<g clip-path="url(#clip1_68_1974)">
<g clip-path="url(#clip2_68_1974)">
<g clip-path="url(#clip3_68_1974)">
<path d="M229.5 9.48935C245.898 0.0218097 266.102 0.021818 282.5 9.48936L456.235 109.795C472.633 119.263 482.734 136.759 482.734 155.694V356.306C482.734 375.241 472.633 392.737 456.234 402.205L282.5 502.511C266.102 511.978 245.898 511.978 229.5 502.511L55.7655 402.205C39.3672 392.737 29.2655 375.241 29.2655 356.306V155.694C29.2655 136.759 39.3673 119.263 55.7655 109.795L229.5 9.48935Z" fill="white"/>
</g>
<mask id="mask0_68_1974" style="mask-type:alpha" maskUnits="userSpaceOnUse" x="0" y="0" width="512" height="512">
<g clip-path="url(#clip4_68_1974)">
<path d="M229.5 9.48935C245.898 0.0218097 266.102 0.021818 282.5 9.48936L456.235 109.795C472.633 119.263 482.734 136.759 482.734 155.694V356.306C482.734 375.241 472.633 392.737 456.234 402.205L282.5 502.511C266.102 511.978 245.898 511.978 229.5 502.511L55.7655 402.205C39.3672 392.737 29.2655 375.241 29.2655 356.306V155.694C29.2655 136.759 39.3673 119.263 55.7655 109.795L229.5 9.48935Z" fill="white"/>
</g>
</mask>
<g mask="url(#mask0_68_1974)">
<rect x="364.203" y="-68.5878" width="35" height="512" transform="rotate(60 364.203 -68.5878)" fill="#EF0028"/>
<rect x="573.703" y="294.277" width="35" height="512" transform="rotate(60 573.703 294.277)" fill="#EF0028"/>
<rect x="539.203" y="234.521" width="34" height="512" transform="rotate(60 539.203 234.521)" fill="#EF0028"/>
<rect x="503.703" y="173.034" width="35" height="512" transform="rotate(60 503.703 173.034)" fill="#EF0028"/>
<rect x="469.203" y="113.278" width="34" height="512" transform="rotate(60 469.203 113.278)" fill="#EF0028"/>
<rect x="399.203" y="-7.966" width="34" height="512" transform="rotate(60 399.203 -7.966)" fill="#EF0028"/>
<rect x="434.203" y="52.6558" width="35" height="512" transform="rotate(60 434.203 52.6558)" fill="#EF0028"/>
<g opacity="0.95" clip-path="url(#clip5_68_1974)" filter="url(#filter0_d_68_1974)">
<path d="M4.50014 -119.51C20.8984 -128.978 41.1019 -128.978 57.5001 -119.51L231.235 -19.2048C247.633 -9.73726 257.735 7.75946 257.735 26.6945L257.735 227.306C257.735 246.241 247.633 263.738 231.235 273.205L57.5001 373.511C41.1018 382.978 20.8984 382.978 4.50012 373.511L-169.234 273.205C-185.633 263.738 -195.734 246.241 -195.734 227.306L-195.734 26.6945C-195.734 7.75944 -185.633 -9.73727 -169.234 -19.2048L4.50014 -119.51Z" fill="#0083FF"/>
</g>
</g>
</g>
</g>
</g>
<defs>
<filter id="filter0_d_68_1974" x="-249" y="-149" width="560" height="560" filterUnits="userSpaceOnUse" color-interpolation-filters="sRGB">
<feFlood flood-opacity="0" result="BackgroundImageFix"/>
<feColorMatrix in="SourceAlpha" type="matrix" values="0 0 0 0 0 0 0 0 0 0 0 0 0 0 0 0 0 0 127 0" result="hardAlpha"/>
<feOffset dy="4"/>
<feGaussianBlur stdDeviation="12"/>
<feColorMatrix type="matrix" values="0 0 0 0 0.117075 0 0 0 0 0 0 0 0 0 0.2625 0 0 0 1 0"/>
<feBlend mode="color-burn" in2="BackgroundImageFix" result="effect1_dropShadow_68_1974"/>
<feBlend mode="normal" in="SourceGraphic" in2="effect1_dropShadow_68_1974" result="shape"/>
</filter>
<clipPath id="clip0_68_1974">
<rect width="512" height="512" fill="white"/>
</clipPath>
<clipPath id="clip1_68_1974">
<rect width="512" height="512" fill="white"/>
</clipPath>
<clipPath id="clip2_68_1974">
<rect width="512" height="512" fill="white"/>
</clipPath>
<clipPath id="clip3_68_1974">
<rect width="512" height="512" fill="white"/>
</clipPath>
<clipPath id="clip4_68_1974">
<rect width="512" height="512" fill="white"/>
</clipPath>
<clipPath id="clip5_68_1974">
<rect width="512" height="512" fill="white" transform="translate(-225 -129)"/>
</clipPath>
</defs>
</svg>
