<svg width="558" height="558" viewBox="0 0 558 558" fill="none" xmlns="http://www.w3.org/2000/svg">
<g clip-path="url(#clip0_63_1927)">
<g clip-path="url(#clip1_63_1927)">
<g clip-path="url(#clip2_63_1927)">
<path d="M265.095 132.8C273.39 128.011 283.61 128.011 291.905 132.8L379.791 183.541C388.086 188.33 393.196 197.181 393.196 206.759V308.241C393.196 317.819 388.086 326.67 379.791 331.459L291.905 382.2C283.61 386.989 273.39 386.989 265.095 382.2L177.21 331.459C168.914 326.67 163.804 317.819 163.804 308.241V206.759C163.804 197.181 168.914 188.33 177.21 183.541L265.095 132.8Z" fill="white"/>
</g>
<mask id="mask0_63_1927" style="mask-type:alpha" maskUnits="userSpaceOnUse" x="149" y="128" width="259" height="259">
<g clip-path="url(#clip3_63_1927)">
<path d="M265.095 132.8C273.39 128.011 283.61 128.011 291.905 132.8L379.791 183.541C388.086 188.33 393.196 197.181 393.196 206.759V308.241C393.196 317.819 388.086 326.67 379.791 331.459L291.905 382.2C283.61 386.989 273.39 386.989 265.095 382.2L177.21 331.459C168.914 326.67 163.804 317.819 163.804 308.241V206.759C163.804 197.181 168.914 188.33 177.21 183.541L265.095 132.8Z" fill="white"/>
</g>
</mask>
<g mask="url(#mask0_63_1927)">
<rect x="333.235" y="93.3042" width="17.7051" height="259" transform="rotate(60 333.235 93.3042)" fill="#EF0028"/>
<rect x="439.213" y="276.863" width="17.7051" height="259" transform="rotate(60 439.213 276.863)" fill="#EF0028"/>
<rect x="421.761" y="246.635" width="17.1992" height="259" transform="rotate(60 421.761 246.635)" fill="#EF0028"/>
<rect x="403.803" y="215.531" width="17.7051" height="259" transform="rotate(60 403.803 215.531)" fill="#EF0028"/>
<rect x="386.351" y="185.303" width="17.1992" height="259" transform="rotate(60 386.351 185.303)" fill="#EF0028"/>
<rect x="350.94" y="123.97" width="17.1992" height="259" transform="rotate(60 350.94 123.97)" fill="#EF0028"/>
<rect x="368.646" y="154.636" width="17.7051" height="259" transform="rotate(60 368.646 154.636)" fill="#EF0028"/>
<g opacity="0.95" clip-path="url(#clip4_63_1927)" filter="url(#filter0_d_63_1927)">
<path d="M151.276 67.5445C159.572 62.7552 169.792 62.7552 178.087 67.5445L265.972 118.285C274.267 123.074 279.377 131.925 279.377 141.504L279.377 242.985C279.377 252.563 274.267 261.414 265.972 266.203L178.087 316.944C169.792 321.733 159.572 321.733 151.276 316.944L63.3912 266.203C55.096 261.414 49.9859 252.563 49.9859 242.985L49.9859 141.504C49.9859 131.925 55.096 123.074 63.3912 118.285L151.276 67.5445Z" fill="#0083FF"/>
</g>
</g>
</g>
</g>
<defs>
<filter id="filter0_d_63_1927" x="23.041" y="52.6271" width="283.281" height="283.281" filterUnits="userSpaceOnUse" color-interpolation-filters="sRGB">
<feFlood flood-opacity="0" result="BackgroundImageFix"/>
<feColorMatrix in="SourceAlpha" type="matrix" values="0 0 0 0 0 0 0 0 0 0 0 0 0 0 0 0 0 0 127 0" result="hardAlpha"/>
<feOffset dy="2.02344"/>
<feGaussianBlur stdDeviation="6.07031"/>
<feColorMatrix type="matrix" values="0 0 0 0 0.117075 0 0 0 0 0 0 0 0 0 0.2625 0 0 0 1 0"/>
<feBlend mode="color-burn" in2="BackgroundImageFix" result="effect1_dropShadow_63_1927"/>
<feBlend mode="normal" in="SourceGraphic" in2="effect1_dropShadow_63_1927" result="shape"/>
</filter>
<clipPath id="clip0_63_1927">
<rect width="259" height="259" fill="white" transform="translate(149 128)"/>
</clipPath>
<clipPath id="clip1_63_1927">
<rect width="259" height="259" fill="white" transform="translate(149 128)"/>
</clipPath>
<clipPath id="clip2_63_1927">
<rect width="259" height="259" fill="white" transform="translate(149 128)"/>
</clipPath>
<clipPath id="clip3_63_1927">
<rect width="259" height="259" fill="white" transform="translate(149 128)"/>
</clipPath>
<clipPath id="clip4_63_1927">
<rect width="259" height="259" fill="white" transform="translate(35.1816 62.7443)"/>
</clipPath>
</defs>
</svg>
