<svg width="128" height="128" viewBox="0 0 128 128" fill="none" xmlns="http://www.w3.org/2000/svg">
<g clip-path="url(#clip0_63_1923)">
<path d="M59.0313 17.7792C62.1059 16.0041 65.8941 16.0041 68.9688 17.7792L101.544 36.5865C104.619 38.3617 106.513 41.6423 106.513 45.1927V82.8073C106.513 86.3576 104.619 89.6382 101.544 91.4134L68.9688 110.221C65.8941 111.996 62.1059 111.996 59.0313 110.221L26.4561 91.4134C23.3814 89.6382 21.4873 86.3576 21.4873 82.8073V45.1927C21.4873 41.6423 23.3814 38.3617 26.4561 36.5865L59.0313 17.7792Z" fill="white"/>
<path d="M64 38.2503L84.1964 26.5709L77.4966 22.7028L64 30.5077V38.2503Z" fill="#EF0038"/>
<path d="M71.1408 19.0333L68.9688 17.7792C67.4314 16.8917 65.7157 16.4479 64 16.4479V23.1627L71.1408 19.0333Z" fill="#EF0038"/>
<path d="M21.7484 85.0715L63.979 53.35L64 45.5953L90.5522 30.2404L97.2519 34.1086L63.979 53.35L21.7484 85.0715L103.353 37.9252C105.031 39.4898 106.124 41.5975 106.427 43.8902L25.4276 90.7314C23.5708 89.3265 22.2742 87.3183 21.7484 85.0715Z" fill="#EF0038"/>
<path d="M106.513 51.1857V45.1713L106.513 45.1927V82.8073C106.513 86.3576 104.619 89.6383 101.544 91.4134L68.9687 110.221C65.8941 111.996 62.1059 111.996 59.0312 110.221L57.8182 109.52L106.513 81.3608V74.0158L51.4624 105.851L44.7626 101.983L106.513 66.2733V58.9282L38.4068 98.3132L31.707 94.4451L106.513 51.1857Z" fill="#EF0038"/>
<path d="M26.4561 36.5866C23.3814 38.3617 21.4873 41.6424 21.4873 45.1927V82.8073C21.4873 83.5792 21.5768 84.3384 21.7486 85.0721L59.3125 63.3846C62.2132 61.7099 64 58.615 64 55.2656L64 16.4479C62.2849 16.4479 60.5699 16.8913 59.033 17.7783C59.0324 17.7786 59.0318 17.7789 59.0313 17.7792L26.4561 36.5866Z" fill="#006FFF"/>
</g>
<defs>
<clipPath id="clip0_63_1923">
<rect width="96" height="96" fill="white" transform="translate(16 16)"/>
</clipPath>
</defs>
</svg>
