<svg width="144" height="144" viewBox="0 0 144 144" fill="none" xmlns="http://www.w3.org/2000/svg">
<g clip-path="url(#clip0_63_1924)">
<g clip-path="url(#clip1_63_1924)">
<path d="M64.5469 2.6689C69.1589 0.0061563 74.8411 0.00616288 79.4532 2.66891L128.316 30.8799C132.928 33.5426 135.769 38.4636 135.769 43.7891V100.211C135.769 105.536 132.928 110.457 128.316 113.12L79.4531 141.331C74.8411 143.994 69.1589 143.994 64.5469 141.331L15.6841 113.12C11.0721 110.457 8.23096 105.536 8.23096 100.211V43.789C8.23096 38.4636 11.0721 33.5426 15.6841 30.8799L64.5469 2.6689Z" fill="white"/>
<path d="M71.9999 33.3754L102.294 15.8564L92.2448 10.0542L71.9999 21.7616V33.3754Z" fill="#EF0038"/>
<path d="M82.7111 4.54991L79.4531 2.66887C77.1471 1.3375 74.5735 0.671815 71.9999 0.671814V10.7441L82.7111 4.54991Z" fill="#EF0038"/>
<path d="M8.62256 103.607L71.9685 56.0249L71.9999 44.3929L111.828 21.3607L121.878 27.1628L71.9685 56.0249L8.62256 103.607L131.03 32.8878C133.546 35.2347 135.186 38.3962 135.641 41.8352L14.1414 112.097C11.3561 109.99 9.41119 106.977 8.62256 103.607Z" fill="#EF0038"/>
<path d="M135.769 52.7786V43.757L135.769 43.789V100.211C135.769 105.536 132.928 110.457 128.316 113.12L79.4531 141.331C74.8411 143.994 69.1588 143.994 64.5468 141.331L62.7272 140.281L135.769 98.0412V87.0237L53.1935 134.776L43.1438 128.974L135.769 75.4099V64.3923L33.6101 123.47L23.5605 117.668L135.769 52.7786Z" fill="#EF0038"/>
<path d="M15.6841 30.8798C11.0721 33.5426 8.23096 38.4635 8.23096 43.789V100.211C8.23096 101.369 8.36526 102.508 8.62288 103.608L64.9688 71.0769C69.3197 68.5649 72 63.9224 72 58.8984L72 0.671814C69.4274 0.671814 66.8548 1.33701 64.5495 2.66739C64.5486 2.66789 64.5478 2.66838 64.5469 2.66887L15.6841 30.8798Z" fill="#006FFF"/>
</g>
</g>
<defs>
<clipPath id="clip0_63_1924">
<rect width="144" height="144" fill="white"/>
</clipPath>
<clipPath id="clip1_63_1924">
<rect width="144" height="144" fill="white"/>
</clipPath>
</defs>
</svg>
