<svg width="128" height="128" viewBox="0 0 128 128" fill="none" xmlns="http://www.w3.org/2000/svg">
<g clip-path="url(#clip0_63_1923)">
<g clip-path="url(#clip1_63_1923)">
<g clip-path="url(#clip2_63_1923)">
<path d="M59.0312 17.7792C62.1059 16.0041 65.8941 16.0041 68.9687 17.7792L101.544 36.5865C104.619 38.3617 106.513 41.6423 106.513 45.1927V82.8073C106.513 86.3576 104.619 89.6383 101.544 91.4134L68.9687 110.221C65.8941 111.996 62.1059 111.996 59.0312 110.221L26.456 91.4134C23.3813 89.6383 21.4873 86.3576 21.4873 82.8073V45.1927C21.4873 41.6423 23.3813 38.3617 26.456 36.5865L59.0312 17.7792Z" fill="white"/>
</g>
<mask id="mask0_63_1923" style="mask-type:alpha" maskUnits="userSpaceOnUse" x="16" y="16" width="96" height="96">
<g clip-path="url(#clip3_63_1923)">
<path d="M59.0312 17.7792C62.1059 16.0041 65.8941 16.0041 68.9687 17.7792L101.544 36.5865C104.619 38.3617 106.513 41.6423 106.513 45.1927V82.8073C106.513 86.3576 104.619 89.6383 101.544 91.4134L68.9687 110.221C65.8941 111.996 62.1059 111.996 59.0312 110.221L26.456 91.4134C23.3813 89.6383 21.4873 86.3576 21.4873 82.8073V45.1927C21.4873 41.6423 23.3813 38.3617 26.456 36.5865L59.0312 17.7792Z" fill="white"/>
</g>
</mask>
<g mask="url(#mask0_63_1923)">
<rect x="84.288" y="3.13977" width="6.5625" height="96" transform="rotate(60 84.288 3.13977)" fill="#EF0028"/>
<rect x="123.569" y="71.177" width="6.5625" height="96" transform="rotate(60 123.569 71.177)" fill="#EF0028"/>
<rect x="117.101" y="59.9728" width="6.375" height="96" transform="rotate(60 117.101 59.9728)" fill="#EF0028"/>
<rect x="110.444" y="48.4438" width="6.5625" height="96" transform="rotate(60 110.444 48.4438)" fill="#EF0028"/>
<rect x="103.976" y="37.2396" width="6.375" height="96" transform="rotate(60 103.976 37.2396)" fill="#EF0028"/>
<rect x="90.8505" y="14.5063" width="6.375" height="96" transform="rotate(60 90.8505 14.5063)" fill="#EF0028"/>
<rect x="97.413" y="25.8729" width="6.5625" height="96" transform="rotate(60 97.413 25.8729)" fill="#EF0028"/>
<g opacity="0.95" clip-path="url(#clip4_63_1923)" filter="url(#filter0_d_63_1923)">
<path d="M16.8437 -6.40821C19.9184 -8.18337 23.7066 -8.18337 26.7812 -6.40821L59.3564 12.3991C62.4311 14.1743 64.3252 17.4549 64.3252 21.0052L64.3252 58.6199C64.3252 62.1702 62.4311 65.4508 59.3564 67.226L26.7812 86.0333C23.7066 87.8084 19.9184 87.8084 16.8437 86.0333L-15.7315 67.226C-18.8062 65.4508 -20.7002 62.1702 -20.7002 58.6199L-20.7002 21.0052C-20.7002 17.4549 -18.8062 14.1743 -15.7315 12.3991L16.8437 -6.40821Z" fill="#0083FF"/>
</g>
</g>
</g>
</g>
<defs>
<filter id="filter0_d_63_1923" x="-30.6875" y="-11.9374" width="105" height="105" filterUnits="userSpaceOnUse" color-interpolation-filters="sRGB">
<feFlood flood-opacity="0" result="BackgroundImageFix"/>
<feColorMatrix in="SourceAlpha" type="matrix" values="0 0 0 0 0 0 0 0 0 0 0 0 0 0 0 0 0 0 127 0" result="hardAlpha"/>
<feOffset dy="0.75"/>
<feGaussianBlur stdDeviation="2.25"/>
<feColorMatrix type="matrix" values="0 0 0 0 0.117075 0 0 0 0 0 0 0 0 0 0.2625 0 0 0 1 0"/>
<feBlend mode="color-burn" in2="BackgroundImageFix" result="effect1_dropShadow_63_1923"/>
<feBlend mode="normal" in="SourceGraphic" in2="effect1_dropShadow_63_1923" result="shape"/>
</filter>
<clipPath id="clip0_63_1923">
<rect width="96" height="96" fill="white" transform="translate(16 16)"/>
</clipPath>
<clipPath id="clip1_63_1923">
<rect width="96" height="96" fill="white" transform="translate(16 16)"/>
</clipPath>
<clipPath id="clip2_63_1923">
<rect width="96" height="96" fill="white" transform="translate(16 16)"/>
</clipPath>
<clipPath id="clip3_63_1923">
<rect width="96" height="96" fill="white" transform="translate(16 16)"/>
</clipPath>
<clipPath id="clip4_63_1923">
<rect width="96" height="96" fill="white" transform="translate(-26.1875 -8.18744)"/>
</clipPath>
</defs>
</svg>
