<svg width="558" height="270" viewBox="0 0 558 270" fill="none" xmlns="http://www.w3.org/2000/svg">
<g clip-path="url(#clip0_63_1926)">
<path d="M272.478 52.3352C276.514 50.0053 281.486 50.0053 285.521 52.3352L328.276 77.0198C332.312 79.3497 334.798 83.6556 334.798 88.3154V137.685C334.798 142.344 332.312 146.65 328.276 148.98L285.521 173.665C281.486 175.995 276.514 175.995 272.478 173.665L229.724 148.98C225.688 146.65 223.202 142.344 223.202 137.685V88.3154C223.202 83.6556 225.688 79.3497 229.724 77.0198L272.478 52.3352Z" fill="white"/>
<path d="M279 79.2035L305.508 63.8744L296.714 58.7975L279 69.0415V79.2035Z" fill="#EF0038"/>
<path d="M288.372 53.9812L285.521 52.3353C283.504 51.1704 281.252 50.5879 279 50.5879V59.4011L288.372 53.9812Z" fill="#EF0038"/>
<path d="M223.545 140.656L278.972 99.0219L279 88.8439L313.85 68.6906L322.643 73.7675L278.972 99.0219L223.545 140.656L330.651 78.7769C332.853 80.8304 334.288 83.5967 334.686 86.6059L228.374 148.085C225.937 146.241 224.235 143.605 223.545 140.656Z" fill="#EF0038"/>
<path d="M334.798 96.1813V88.2874L334.798 88.3155V137.685C334.798 142.344 332.312 146.65 328.276 148.98L285.521 173.665C281.486 175.995 276.514 175.995 272.479 173.665L270.886 172.746L334.798 135.786V126.146L262.544 167.929L253.751 162.852L334.798 115.984V106.343L245.409 158.036L236.615 152.959L334.798 96.1813Z" fill="#EF0038"/>
<path d="M229.724 77.0199C225.688 79.3498 223.202 83.6556 223.202 88.3154V137.685C223.202 138.698 223.32 139.694 223.545 140.657L272.848 112.192C276.655 109.994 279 105.932 279 101.536L279 50.5879C276.749 50.5879 274.498 51.1699 272.481 52.334C272.48 52.3345 272.479 52.3349 272.478 52.3353L229.724 77.0199Z" fill="#006FFF"/>
</g>
<defs>
<clipPath id="clip0_63_1926">
<rect width="126" height="126" fill="white" transform="translate(216 50)"/>
</clipPath>
</defs>
</svg>
