<svg width="558" height="270" viewBox="0 0 558 270" fill="none" xmlns="http://www.w3.org/2000/svg">
<g clip-path="url(#clip0_63_1926)">
<g clip-path="url(#clip1_63_1926)">
<g clip-path="url(#clip2_63_1926)">
<path d="M272.478 52.3352C276.514 50.0053 281.486 50.0053 285.521 52.3352L328.276 77.0198C332.312 79.3497 334.798 83.6556 334.798 88.3154V137.685C334.798 142.344 332.312 146.65 328.276 148.98L285.521 173.665C281.486 175.995 276.514 175.995 272.478 173.665L229.724 148.98C225.688 146.65 223.202 142.344 223.202 137.685V88.3154C223.202 83.6556 225.688 79.3497 229.724 77.0198L272.478 52.3352Z" fill="white"/>
</g>
<mask id="mask0_63_1926" style="mask-type:alpha" maskUnits="userSpaceOnUse" x="216" y="50" width="126" height="126">
<g clip-path="url(#clip3_63_1926)">
<path d="M272.478 52.3352C276.514 50.0053 281.486 50.0053 285.521 52.3352L328.276 77.0198C332.312 79.3497 334.798 83.6556 334.798 88.3154V137.685C334.798 142.344 332.312 146.65 328.276 148.98L285.521 173.665C281.486 175.995 276.514 175.995 272.478 173.665L229.724 148.98C225.688 146.65 223.202 142.344 223.202 137.685V88.3154C223.202 83.6556 225.688 79.3497 229.724 77.0198L272.478 52.3352Z" fill="white"/>
</g>
</mask>
<g mask="url(#mask0_63_1926)">
<rect x="305.628" y="33.121" width="8.61328" height="126" transform="rotate(60 305.628 33.121)" fill="#EF0028"/>
<rect x="357.185" y="122.42" width="8.61328" height="126" transform="rotate(60 357.185 122.42)" fill="#EF0028"/>
<rect x="348.694" y="107.714" width="8.36719" height="126" transform="rotate(60 348.694 107.714)" fill="#EF0028"/>
<rect x="339.958" y="92.5825" width="8.61328" height="126" transform="rotate(60 339.958 92.5825)" fill="#EF0028"/>
<rect x="331.468" y="77.877" width="8.36719" height="126" transform="rotate(60 331.468 77.877)" fill="#EF0028"/>
<rect x="314.241" y="48.0396" width="8.36719" height="126" transform="rotate(60 314.241 48.0396)" fill="#EF0028"/>
<rect x="322.855" y="62.9583" width="8.61328" height="126" transform="rotate(60 322.855 62.9583)" fill="#EF0028"/>
<g opacity="0.95" clip-path="url(#clip4_63_1926)" filter="url(#filter0_d_63_1926)">
<path d="M217.107 20.5892C221.143 18.2593 226.115 18.2593 230.15 20.5892L272.905 45.2737C276.941 47.6037 279.427 51.9095 279.427 56.5693L279.427 105.938C279.427 110.598 276.941 114.904 272.905 117.234L230.15 141.919C226.115 144.249 221.143 144.249 217.107 141.919L174.352 117.234C170.317 114.904 167.831 110.598 167.831 105.938L167.831 56.5693C167.831 51.9095 170.317 47.6037 174.352 45.2737L217.107 20.5892Z" fill="#0083FF"/>
</g>
</g>
</g>
</g>
<defs>
<filter id="filter0_d_63_1926" x="154.723" y="13.332" width="137.813" height="137.813" filterUnits="userSpaceOnUse" color-interpolation-filters="sRGB">
<feFlood flood-opacity="0" result="BackgroundImageFix"/>
<feColorMatrix in="SourceAlpha" type="matrix" values="0 0 0 0 0 0 0 0 0 0 0 0 0 0 0 0 0 0 127 0" result="hardAlpha"/>
<feOffset dy="0.984375"/>
<feGaussianBlur stdDeviation="2.95313"/>
<feColorMatrix type="matrix" values="0 0 0 0 0.117075 0 0 0 0 0 0 0 0 0 0.2625 0 0 0 1 0"/>
<feBlend mode="color-burn" in2="BackgroundImageFix" result="effect1_dropShadow_63_1926"/>
<feBlend mode="normal" in="SourceGraphic" in2="effect1_dropShadow_63_1926" result="shape"/>
</filter>
<clipPath id="clip0_63_1926">
<rect width="126" height="126" fill="white" transform="translate(216 50)"/>
</clipPath>
<clipPath id="clip1_63_1926">
<rect width="126" height="126" fill="white" transform="translate(216 50)"/>
</clipPath>
<clipPath id="clip2_63_1926">
<rect width="126" height="126" fill="white" transform="translate(216 50)"/>
</clipPath>
<clipPath id="clip3_63_1926">
<rect width="126" height="126" fill="white" transform="translate(216 50)"/>
</clipPath>
<clipPath id="clip4_63_1926">
<rect width="126" height="126" fill="white" transform="translate(160.629 18.2539)"/>
</clipPath>
</defs>
</svg>
