<svg width="558" height="558" viewBox="0 0 558 558" fill="none" xmlns="http://www.w3.org/2000/svg">
<g clip-path="url(#clip0_63_1927)">
<path d="M265.095 132.8C273.39 128.011 283.61 128.011 291.905 132.8L379.79 183.541C388.086 188.33 393.196 197.181 393.196 206.759V308.241C393.196 317.819 388.086 326.67 379.79 331.459L291.905 382.2C283.61 386.989 273.39 386.989 265.095 382.2L177.209 331.459C168.914 326.67 163.804 317.819 163.804 308.241V206.759C163.804 197.181 168.914 188.33 177.209 183.541L265.095 132.8Z" fill="white"/>
<path d="M163.804 233.468V254.357L332.988 156.519L314.913 146.084L163.804 233.468Z" fill="#D40020"/>
<path d="M297.765 136.183L291.905 132.8C283.61 128.011 273.39 128.011 265.095 132.8L177.209 183.541C168.914 188.33 163.804 197.181 163.804 206.759V213.652L297.765 136.183Z" fill="#D40020"/>
<path d="M163.804 308.24V274.173L350.135 166.419L368.211 176.855L278.443 228.767V248.583L384.672 187.152C389.198 191.373 392.148 197.06 392.965 203.245L174.435 329.619C167.79 324.591 163.804 316.7 163.804 308.24Z" fill="#D40020"/>
<path d="M393.196 222.928V206.702L393.196 206.759V308.24C393.196 317.819 388.086 326.67 379.79 331.459L291.905 382.2C283.61 386.989 273.39 386.989 265.095 382.2L261.822 380.31L393.196 304.338V284.522L244.674 370.41L226.599 359.974L393.196 263.633V243.817L209.452 350.074L191.376 339.638L393.196 222.928Z" fill="#D40020"/>
<path d="M177.209 183.541C168.914 188.33 163.804 197.181 163.804 206.759V308.24C163.804 310.323 164.046 312.371 164.509 314.351L278.5 248.538L278.5 129.208C273.873 129.208 269.246 130.405 265.099 132.798C265.098 132.798 265.096 132.799 265.095 132.8L177.209 183.541Z" fill="#006FFF"/>
</g>
<defs>
<clipPath id="clip0_63_1927">
<rect width="259" height="259" fill="white" transform="translate(149 128)"/>
</clipPath>
</defs>
</svg>
