<svg width="144" height="144" viewBox="0 0 144 144" fill="none" xmlns="http://www.w3.org/2000/svg">
<g clip-path="url(#clip0_63_1924)">
<g clip-path="url(#clip1_63_1924)">
<g clip-path="url(#clip2_63_1924)">
<g clip-path="url(#clip3_63_1924)">
<path d="M64.5469 2.6689C69.1589 0.00615656 74.8411 0.00616357 79.4532 2.66891L128.316 30.8799C132.928 33.5426 135.769 38.4636 135.769 43.7891V100.211C135.769 105.536 132.928 110.457 128.316 113.12L79.4531 141.331C74.8411 143.994 69.1589 143.994 64.5469 141.331L15.6841 113.12C11.0721 110.457 8.23095 105.536 8.23095 100.211V43.7891C8.23095 38.4636 11.0721 33.5426 15.6841 30.8799L64.5469 2.6689Z" fill="white"/>
</g>
<mask id="mask0_63_1924" style="mask-type:alpha" maskUnits="userSpaceOnUse" x="0" y="0" width="144" height="144">
<g clip-path="url(#clip4_63_1924)">
<path d="M64.5469 2.6689C69.1589 0.00615656 74.8411 0.00616357 79.4532 2.66891L128.316 30.8799C132.928 33.5426 135.769 38.4636 135.769 43.7891V100.211C135.769 105.536 132.928 110.457 128.316 113.12L79.4531 141.331C74.8411 143.994 69.1589 143.994 64.5469 141.331L15.6841 113.12C11.0721 110.457 8.23095 105.536 8.23095 100.211V43.7891C8.23095 38.4636 11.0721 33.5426 15.6841 30.8799L64.5469 2.6689Z" fill="white"/>
</g>
</mask>
<g mask="url(#mask0_63_1924)">
<rect x="102.432" y="-19.2903" width="9.84375" height="144" transform="rotate(60 102.432 -19.2903)" fill="#EF0028"/>
<rect x="161.354" y="82.7655" width="9.84375" height="144" transform="rotate(60 161.354 82.7655)" fill="#EF0028"/>
<rect x="151.651" y="65.9592" width="9.5625" height="144" transform="rotate(60 151.651 65.9592)" fill="#EF0028"/>
<rect x="141.666" y="48.6657" width="9.84375" height="144" transform="rotate(60 141.666 48.6657)" fill="#EF0028"/>
<rect x="131.963" y="31.8594" width="9.5625" height="144" transform="rotate(60 131.963 31.8594)" fill="#EF0028"/>
<rect x="112.276" y="-2.24042" width="9.5625" height="144" transform="rotate(60 112.276 -2.24042)" fill="#EF0028"/>
<rect x="122.12" y="14.8094" width="9.84375" height="144" transform="rotate(60 122.12 14.8094)" fill="#EF0028"/>
<g opacity="0.95" clip-path="url(#clip5_63_1924)" filter="url(#filter0_d_63_1924)">
<path d="M1.26567 -33.6123C5.87768 -36.2751 11.5599 -36.2751 16.1719 -33.6123L65.0347 -5.40137C69.6468 -2.73862 72.4879 2.18233 72.4879 7.50782L72.4879 63.9298C72.4879 69.2553 69.6467 74.1762 65.0347 76.8389L16.1719 105.05C11.5599 107.713 5.87766 107.713 1.26565 105.05L-47.5972 76.8389C-52.2092 74.1762 -55.0503 69.2552 -55.0503 63.9297L-55.0503 7.5078C-55.0503 2.18231 -52.2092 -2.73863 -47.5972 -5.40138L1.26567 -33.6123Z" fill="#0083FF"/>
</g>
</g>
</g>
</g>
</g>
<defs>
<filter id="filter0_d_63_1924" x="-70.0312" y="-41.9062" width="157.5" height="157.5" filterUnits="userSpaceOnUse" color-interpolation-filters="sRGB">
<feFlood flood-opacity="0" result="BackgroundImageFix"/>
<feColorMatrix in="SourceAlpha" type="matrix" values="0 0 0 0 0 0 0 0 0 0 0 0 0 0 0 0 0 0 127 0" result="hardAlpha"/>
<feOffset dy="1.125"/>
<feGaussianBlur stdDeviation="3.375"/>
<feColorMatrix type="matrix" values="0 0 0 0 0.117075 0 0 0 0 0 0 0 0 0 0.2625 0 0 0 1 0"/>
<feBlend mode="color-burn" in2="BackgroundImageFix" result="effect1_dropShadow_63_1924"/>
<feBlend mode="normal" in="SourceGraphic" in2="effect1_dropShadow_63_1924" result="shape"/>
</filter>
<clipPath id="clip0_63_1924">
<rect width="144" height="144" fill="white"/>
</clipPath>
<clipPath id="clip1_63_1924">
<rect width="144" height="144" fill="white"/>
</clipPath>
<clipPath id="clip2_63_1924">
<rect width="144" height="144" fill="white"/>
</clipPath>
<clipPath id="clip3_63_1924">
<rect width="144" height="144" fill="white"/>
</clipPath>
<clipPath id="clip4_63_1924">
<rect width="144" height="144" fill="white"/>
</clipPath>
<clipPath id="clip5_63_1924">
<rect width="144" height="144" fill="white" transform="translate(-63.2812 -36.2812)"/>
</clipPath>
</defs>
</svg>
