<svg width="180" height="180" viewBox="0 0 180 180" fill="none" xmlns="http://www.w3.org/2000/svg">
<g clip-path="url(#clip0_62_1896)">
<g clip-path="url(#clip1_62_1896)">
<path d="M63.4999 13.2571C79.8982 3.78952 100.102 3.78952 116.5 13.2571L143.211 28.6789C159.61 38.1464 169.711 55.6431 169.711 74.5782V105.422C169.711 124.357 159.61 141.854 143.211 151.321L116.5 166.743C100.102 176.21 79.8982 176.21 63.4999 166.743L36.7886 151.321C20.3903 141.854 10.2886 124.357 10.2886 105.422V74.5782C10.2886 55.6431 20.3903 38.1464 36.7886 28.6789L63.4999 13.2571Z" fill="white"/>
<path d="M90.0001 41.7193L127.868 19.8205L115.306 12.5678L90.0001 27.202V41.7193Z" fill="#EF0038"/>
<path d="M103.389 5.68741L99.3165 3.33611C96.4339 1.67189 93.217 0.839784 90.0001 0.839783V13.4301L103.389 5.68741Z" fill="#EF0038"/>
<path d="M10.7783 129.509L89.9607 70.0312L90.0001 55.4912L139.785 26.7008L152.347 33.9536L89.9607 70.0312L10.7783 129.509L163.787 41.1098C166.933 44.0434 168.983 47.9953 169.551 52.2941L17.6768 140.121C14.1952 137.487 11.7641 133.722 10.7783 129.509Z" fill="#EF0038"/>
<path d="M169.711 65.9732V54.6962L169.711 54.7363V125.264C169.711 131.921 166.16 138.072 160.395 141.4L99.3164 176.664C93.5514 179.992 86.4487 179.992 80.6836 176.664L78.4091 175.351L169.711 122.552V108.78L66.492 168.47L53.9299 161.218L169.711 94.2624V80.4904L42.0128 154.337L29.4507 147.085L169.711 65.9732Z" fill="#EF0038"/>
<path d="M19.605 38.5998C13.84 41.9282 10.2886 48.0794 10.2886 54.7363V125.264C10.2886 126.711 10.4565 128.135 10.7785 129.51L81.2109 88.8461C86.6495 85.7061 89.9999 79.9031 89.9999 73.623L89.9999 0.839783C86.7842 0.839783 83.5684 1.67127 80.6867 3.33426C80.6856 3.33487 80.6846 3.33549 80.6835 3.33611L19.605 38.5998Z" fill="#006FFF"/>
</g>
</g>
<defs>
<clipPath id="clip0_62_1896">
<rect width="180" height="180" fill="white"/>
</clipPath>
<clipPath id="clip1_62_1896">
<rect width="180" height="180" fill="white"/>
</clipPath>
</defs>
</svg>
