<svg width="180" height="180" viewBox="0 0 180 180" fill="none" xmlns="http://www.w3.org/2000/svg">
<g clip-path="url(#clip0_62_1896)">
<g clip-path="url(#clip1_62_1896)">
<g clip-path="url(#clip2_62_1896)">
<g clip-path="url(#clip3_62_1896)">
<path d="M80.6836 3.3361C86.4486 0.00767278 93.5514 0.00767415 99.3164 3.33611L160.395 38.5998C166.16 41.9282 169.711 48.0794 169.711 54.7363V125.264C169.711 131.921 166.16 138.072 160.395 141.4L99.3164 176.664C93.5514 179.992 86.4486 179.992 80.6836 176.664L19.6051 141.4C13.8401 138.072 10.2887 131.921 10.2887 125.264V54.7363C10.2887 48.0794 13.8401 41.9282 19.6051 38.5998L80.6836 3.3361Z" fill="white"/>
</g>
<mask id="mask0_62_1896" style="mask-type:alpha" maskUnits="userSpaceOnUse" x="0" y="0" width="180" height="180">
<g clip-path="url(#clip4_62_1896)">
<path d="M80.6836 3.3361C86.4486 0.00767278 93.5514 0.00767415 99.3164 3.33611L160.395 38.5998C166.16 41.9282 169.711 48.0794 169.711 54.7363V125.264C169.711 131.921 166.16 138.072 160.395 141.4L99.3164 176.664C93.5514 179.992 86.4486 179.992 80.6836 176.664L19.6051 141.4C13.8401 138.072 10.2887 131.921 10.2887 125.264V54.7363C10.2887 48.0794 13.8401 41.9282 19.6051 38.5998L80.6836 3.3361Z" fill="white"/>
</g>
</mask>
<g mask="url(#mask0_62_1896)">
<rect x="128.04" y="-24.1129" width="12.3047" height="180" transform="rotate(60 128.04 -24.1129)" fill="#EF0028"/>
<rect x="201.692" y="103.457" width="12.3047" height="180" transform="rotate(60 201.692 103.457)" fill="#EF0028"/>
<rect x="189.563" y="82.449" width="11.9531" height="180" transform="rotate(60 189.563 82.449)" fill="#EF0028"/>
<rect x="177.083" y="60.8322" width="12.3047" height="180" transform="rotate(60 177.083 60.8322)" fill="#EF0028"/>
<rect x="164.954" y="39.8243" width="11.9531" height="180" transform="rotate(60 164.954 39.8243)" fill="#EF0028"/>
<rect x="140.345" y="-2.80054" width="11.9531" height="180" transform="rotate(60 140.345 -2.80054)" fill="#EF0028"/>
<rect x="152.649" y="18.5118" width="12.3047" height="180" transform="rotate(60 152.649 18.5118)" fill="#EF0028"/>
<g opacity="0.95" clip-path="url(#clip5_62_1896)" filter="url(#filter0_d_62_1896)">
<path d="M1.58203 -42.0154C7.34705 -45.3438 14.4498 -45.3438 20.2148 -42.0154L81.2934 -6.75169C87.0584 -3.42326 90.6098 2.72793 90.6098 9.3848L90.6098 79.9122C90.6098 86.5691 87.0584 92.7203 81.2934 96.0487L20.2148 131.312C14.4498 134.641 7.34704 134.641 1.58203 131.312L-59.4965 96.0487C-65.2615 92.7203 -68.8129 86.5691 -68.8129 79.9122L-68.8129 9.38479C-68.8129 2.72793 -65.2615 -3.42326 -59.4965 -6.75169L1.58203 -42.0154Z" fill="#0083FF"/>
</g>
</g>
</g>
</g>
</g>
<defs>
<filter id="filter0_d_62_1896" x="-87.5391" y="-52.3828" width="196.875" height="196.875" filterUnits="userSpaceOnUse" color-interpolation-filters="sRGB">
<feFlood flood-opacity="0" result="BackgroundImageFix"/>
<feColorMatrix in="SourceAlpha" type="matrix" values="0 0 0 0 0 0 0 0 0 0 0 0 0 0 0 0 0 0 127 0" result="hardAlpha"/>
<feOffset dy="1.40625"/>
<feGaussianBlur stdDeviation="4.21875"/>
<feColorMatrix type="matrix" values="0 0 0 0 0.117075 0 0 0 0 0 0 0 0 0 0.2625 0 0 0 1 0"/>
<feBlend mode="color-burn" in2="BackgroundImageFix" result="effect1_dropShadow_62_1896"/>
<feBlend mode="normal" in="SourceGraphic" in2="effect1_dropShadow_62_1896" result="shape"/>
</filter>
<clipPath id="clip0_62_1896">
<rect width="180" height="180" fill="white"/>
</clipPath>
<clipPath id="clip1_62_1896">
<rect width="180" height="180" fill="white"/>
</clipPath>
<clipPath id="clip2_62_1896">
<rect width="180" height="180" fill="white"/>
</clipPath>
<clipPath id="clip3_62_1896">
<rect width="180" height="180" fill="white"/>
</clipPath>
<clipPath id="clip4_62_1896">
<rect width="180" height="180" fill="white"/>
</clipPath>
<clipPath id="clip5_62_1896">
<rect width="180" height="180" fill="white" transform="translate(-79.1016 -45.3515)"/>
</clipPath>
</defs>
</svg>
