<svg height="24" viewBox="0 0 24 24" width="24" xmlns="http://www.w3.org/2000/svg"><circle cx="10.5" cy="4.5" r="1.5"/><path d="m19.59 16h-1.27l-.64.71h-1.27l-1.27 4.29h1.27l.64-.71h1.9l.64.71h1.27zm-5.21-3.28-.38 1.47-3.8-1.26-.1-.16.52-3.13c.93 1.37 2.15 2.11 4.6 2.11v-1.5c-2.44 0-3.09-.77-3.9-2.39a2.65 2.65 0 0 0 -3-1.59l-4.57 1.14v3.38l-1.51-.5-.48 1.42 4.35 1.45-1.11 7.7 2 .28 1-7.34.38.13 1.62 2.37v4.7h2v-5.3l-.49-.7 2 .67-.37 1.27 1.91.57 1.24-4.19zm-9.13-1.43v-2.7l1.57-.4-.49 3.46z"/></svg>