<svg height="50" viewBox="0 0 65 50" width="65" xmlns="http://www.w3.org/2000/svg"><path d="m63.268 7.063-5.616-5.61c-.77-.768-1.706-1.153-2.807-1.153s-2.038.385-2.808 1.155l-27.086 27.097-12.141-12.167c-.77-.77-1.707-1.155-2.808-1.155-1.1 0-2.037.385-2.807 1.154l-5.616 5.61c-.769.77-1.154 1.706-1.154 2.806s.385 2.035 1.155 2.805l14.947 14.93 5.616 5.61c.77.77 1.706 1.154 2.807 1.154s2.038-.384 2.808-1.154l5.616-5.61 29.894-29.86c.77-.77 1.157-1.707 1.157-2.805 0-1.101-.385-2.036-1.156-2.805z" fill="#171717" fill-rule="evenodd"/></svg>