<svg height="64" viewBox="0 0 64 64" width="64" xmlns="http://www.w3.org/2000/svg"><path d="m32 0c17.673 0 32 14.327 32 32s-14.327 32-32 32-32-14.327-32-32 14.327-32 32-32zm0 1.208c-17.006 0-30.792 13.786-30.792 30.792s13.786 30.792 30.792 30.792 30.792-13.786 30.792-30.792-13.786-30.792-30.792-30.792zm10.59 38.858a.857.857 0 0 1 .882.822v1.642h-24.586v-1.642a.857.857 0 0 1 .882-.822zm-17.147-12.292v9.829h1.642v-9.83h3.273v9.83h1.642v-9.83h3.272v9.83h1.643v-9.83h3.272v9.83h.76a.857.857 0 0 1 .882.821v.821h-21.3v-.809a.857.857 0 0 1 .88-.82h.762v-9.842zm5.736-8.188 12.293 4.915v1.642h-1.63a.857.857 0 0 1 -.882.822h-19.55a.857.857 0 0 1 -.882-.822h-1.642v-1.642z" fill="#2378c3" fill-rule="evenodd"/></svg>