<svg width="512" height="512" viewBox="0 0 512 512" fill="none" xmlns="http://www.w3.org/2000/svg">
<g clip-path="url(#clip0_68_1974)">
<g clip-path="url(#clip1_68_1974)">
<g clip-path="url(#clip2_68_1974)">
<rect width="292.188" height="28.5448" transform="matrix(0.876147 -0.482044 2.31182e-08 1 0 140.347)" fill="#B22234"/>
<rect width="292.188" height="28.5448" transform="matrix(0.876147 -0.482044 2.31182e-08 1 0 168.892)" fill="white"/>
<rect width="292.188" height="28.5448" transform="matrix(0.876147 -0.482044 2.31182e-08 1 0 197.437)" fill="#B22234"/>
<rect width="292.188" height="28.5448" transform="matrix(0.876147 -0.482044 2.31182e-08 1 0 225.981)" fill="white"/>
<rect width="292.188" height="28.5448" transform="matrix(0.876147 -0.482044 2.31182e-08 1 0 254.526)" fill="#B22234"/>
<rect width="292.188" height="28.5448" transform="matrix(0.876147 -0.482044 2.31182e-08 1 0 283.071)" fill="white"/>
<rect width="292.188" height="28.5448" transform="matrix(0.876147 -0.482044 2.31182e-08 1 0 311.616)" fill="#B22234"/>
<rect width="292.188" height="29.1157" transform="matrix(0.876147 -0.482044 2.31182e-08 1 0 340.161)" fill="white"/>
<rect width="292.188" height="28.5448" transform="matrix(0.876147 -0.482044 2.31182e-08 1 0 369.276)" fill="#B22234"/>
<rect width="292.188" height="28.5448" transform="matrix(0.876147 -0.482044 2.31182e-08 1 0 397.821)" fill="white"/>
<rect width="292.188" height="28.5448" transform="matrix(0.876147 -0.482044 2.31182e-08 1 0 426.366)" fill="#B22234"/>
<rect width="292.188" height="28.5448" transform="matrix(0.876147 -0.482044 2.31182e-08 1 0 454.911)" fill="white"/>
<rect width="292.188" height="28.5448" transform="matrix(0.876147 -0.482044 2.31182e-08 1 0 483.455)" fill="#B22234"/>
<path d="M256.047 -0.526303L0 140.347L4.61482e-06 339.965L256.047 199.092L256.047 -0.526303Z" fill="#3C3B6E"/>
<path d="M21.3372 137.163L27.4303 154.445L11.4783 150.469L31.1961 139.62L15.244 161.15L21.3372 137.163Z" fill="white"/>
<path d="M21.3372 177.087L27.4303 194.369L11.4783 190.393L31.1961 179.544L15.244 201.074L21.3372 177.087Z" fill="white"/>
<path d="M21.3372 217.01L27.4303 234.293L11.4783 230.316L31.1961 219.468L15.244 240.997L21.3372 217.01Z" fill="white"/>
<path d="M21.3372 256.934L27.4303 274.216L11.4783 270.24L31.1961 259.391L15.244 280.921L21.3372 256.934Z" fill="white"/>
<path d="M21.3372 296.857L27.4303 314.14L11.4783 310.163L31.1961 299.315L15.244 320.845L21.3372 296.857Z" fill="white"/>
<path d="M42.6746 145.385L48.7677 162.668L32.8157 158.691L52.5335 147.843L36.5814 169.372L42.6746 145.385Z" fill="white"/>
<path d="M42.6746 185.309L48.7677 202.592L32.8157 198.615L52.5335 187.767L36.5814 209.296L42.6746 185.309Z" fill="white"/>
<path d="M42.6746 225.232L48.7677 242.515L32.8157 238.538L52.5335 227.69L36.5814 249.22L42.6746 225.232Z" fill="white"/>
<path d="M42.6746 265.156L48.7677 282.439L32.8157 278.462L52.5335 267.614L36.5814 289.143L42.6746 265.156Z" fill="white"/>
<path d="M64.0117 113.684L70.1049 130.967L54.1528 126.99L73.8707 116.142L57.9186 137.671L64.0117 113.684Z" fill="white"/>
<path d="M64.0117 153.608L70.1049 170.89L54.1528 166.914L73.8707 156.065L57.9186 177.595L64.0117 153.608Z" fill="white"/>
<path d="M64.0117 193.531L70.1049 210.814L54.1528 206.837L73.8707 195.989L57.9186 217.518L64.0117 193.531Z" fill="white"/>
<path d="M64.0117 233.455L70.1049 250.738L54.1528 246.761L73.8707 235.913L57.9186 257.442L64.0117 233.455Z" fill="white"/>
<path d="M64.0117 273.379L70.1049 290.661L54.1528 286.685L73.8707 275.836L57.9186 297.366L64.0117 273.379Z" fill="white"/>
<path d="M85.3489 121.907L91.4421 139.189L75.49 135.213L95.2078 124.364L79.2558 145.894L85.3489 121.907Z" fill="white"/>
<path d="M85.3489 161.83L91.4421 179.113L75.49 175.136L95.2078 164.288L79.2558 185.818L85.3489 161.83Z" fill="white"/>
<path d="M85.3489 201.754L91.4421 219.036L75.49 215.06L95.2078 204.211L79.2558 225.741L85.3489 201.754Z" fill="white"/>
<path d="M85.3489 241.678L91.4421 258.96L75.49 254.984L95.2078 244.135L79.2558 265.665L85.3489 241.678Z" fill="white"/>
<path d="M106.686 90.2049L112.779 107.488L96.8274 103.511L116.545 92.6626L100.593 114.192L106.686 90.2049Z" fill="white"/>
<path d="M106.686 130.128L112.779 147.411L96.8274 143.435L116.545 132.586L100.593 154.116L106.686 130.128Z" fill="white"/>
<path d="M106.686 170.052L112.779 187.335L96.8274 183.358L116.545 172.51L100.593 194.039L106.686 170.052Z" fill="white"/>
<path d="M106.686 209.976L112.779 227.259L96.8274 223.282L116.545 212.434L100.593 233.963L106.686 209.976Z" fill="white"/>
<path d="M106.686 249.9L112.779 267.182L96.8274 263.206L116.545 252.357L100.593 273.887L106.686 249.9Z" fill="white"/>
<path d="M128.023 98.4276L134.117 115.71L118.165 111.734L137.882 100.885L121.93 122.415L128.023 98.4276Z" fill="white"/>
<path d="M128.023 138.351L134.117 155.634L118.165 151.657L137.882 140.809L121.93 162.339L128.023 138.351Z" fill="white"/>
<path d="M128.023 178.275L134.117 195.557L118.165 191.581L137.882 180.732L121.93 202.262L128.023 178.275Z" fill="white"/>
<path d="M128.023 218.199L134.117 235.481L118.165 231.505L137.882 220.656L121.93 242.186L128.023 218.199Z" fill="white"/>
<path d="M149.361 66.726L155.454 84.0087L139.502 80.0321L159.22 69.1837L143.268 90.7134L149.361 66.726Z" fill="white"/>
<path d="M149.361 106.65L155.454 123.932L139.502 119.956L159.22 109.107L143.268 130.637L149.361 106.65Z" fill="white"/>
<path d="M149.361 146.573L155.454 163.856L139.502 159.879L159.22 149.031L143.268 170.561L149.361 146.573Z" fill="white"/>
<path d="M149.361 186.497L155.454 203.78L139.502 199.803L159.22 188.955L143.268 210.485L149.361 186.497Z" fill="white"/>
<path d="M149.361 226.421L155.454 243.703L139.502 239.727L159.22 228.878L143.268 250.408L149.361 226.421Z" fill="white"/>
<path d="M170.698 74.9484L176.791 92.2311L160.839 88.2546L180.557 77.4061L164.605 98.9358L170.698 74.9484Z" fill="white"/>
<path d="M170.698 114.872L176.791 132.155L160.839 128.178L180.557 117.33L164.605 138.86L170.698 114.872Z" fill="white"/>
<path d="M170.698 154.796L176.791 172.078L160.839 168.102L180.557 157.253L164.605 178.783L170.698 154.796Z" fill="white"/>
<path d="M170.698 194.72L176.791 212.002L160.839 208.026L180.557 197.177L164.605 218.707L170.698 194.72Z" fill="white"/>
<path d="M192.035 43.247L198.128 60.5297L182.176 56.5531L201.894 45.7047L185.942 67.2344L192.035 43.247Z" fill="white"/>
<path d="M192.035 83.1707L198.128 100.453L182.176 96.4768L201.894 85.6284L185.942 107.158L192.035 83.1707Z" fill="white"/>
<path d="M192.035 123.094L198.128 140.377L182.176 136.4L201.894 125.552L185.942 147.082L192.035 123.094Z" fill="white"/>
<path d="M192.035 163.018L198.128 180.301L182.176 176.324L201.894 165.476L185.942 187.006L192.035 163.018Z" fill="white"/>
<path d="M192.035 202.942L198.128 220.224L182.176 216.248L201.894 205.399L185.942 226.929L192.035 202.942Z" fill="white"/>
<path d="M213.372 51.4694L219.465 68.7521L203.513 64.7756L223.231 53.9271L207.279 75.4568L213.372 51.4694Z" fill="white"/>
<path d="M213.372 91.3931L219.465 108.676L203.513 104.699L223.231 93.8508L207.279 115.381L213.372 91.3931Z" fill="white"/>
<path d="M213.372 131.317L219.465 148.599L203.513 144.623L223.231 133.774L207.279 155.304L213.372 131.317Z" fill="white"/>
<path d="M213.372 171.241L219.465 188.523L203.513 184.547L223.231 173.698L207.279 195.228L213.372 171.241Z" fill="white"/>
<path d="M234.71 19.7681L240.803 37.0508L224.851 33.0743L244.569 22.2258L228.617 43.7555L234.71 19.7681Z" fill="white"/>
<path d="M234.71 59.6919L240.803 76.9745L224.851 72.998L244.569 62.1495L228.617 83.6792L234.71 59.6919Z" fill="white"/>
<path d="M234.71 99.6156L240.803 116.898L224.851 112.922L244.569 102.073L228.617 123.603L234.71 99.6156Z" fill="white"/>
<path d="M234.71 139.539L240.803 156.822L224.851 152.845L244.569 141.997L228.617 163.527L234.71 139.539Z" fill="white"/>
<path d="M234.71 179.463L240.803 196.745L224.851 192.769L244.569 181.92L228.617 203.45L234.71 179.463Z" fill="white"/>
<rect width="292.135" height="28.5448" transform="matrix(0.876147 -0.482044 2.31182e-08 1 256.047 140.347)" fill="#B22234"/>
<rect width="292.135" height="28.5448" transform="matrix(0.876147 -0.482044 2.31182e-08 1 256.047 168.892)" fill="white"/>
<rect width="292.135" height="28.5448" transform="matrix(0.876147 -0.482044 2.31182e-08 1 256.047 197.437)" fill="#B22234"/>
<rect width="292.135" height="28.5448" transform="matrix(0.876147 -0.482044 2.31182e-08 1 256.047 225.981)" fill="white"/>
<rect width="292.135" height="28.5448" transform="matrix(0.876147 -0.482044 2.31182e-08 1 256.047 254.526)" fill="#B22234"/>
<rect width="292.135" height="28.5448" transform="matrix(0.876147 -0.482044 2.31182e-08 1 256.047 283.071)" fill="white"/>
<rect width="292.135" height="28.5448" transform="matrix(0.876147 -0.482044 2.31182e-08 1 256.047 311.616)" fill="#B22234"/>
<rect width="292.135" height="29.1157" transform="matrix(0.876147 -0.482044 2.31182e-08 1 256.047 340.161)" fill="white"/>
<rect width="292.135" height="28.5448" transform="matrix(0.876147 -0.482044 2.31182e-08 1 256.047 369.276)" fill="#B22234"/>
<rect width="292.135" height="28.5448" transform="matrix(0.876147 -0.482044 2.31182e-08 1 256.047 397.821)" fill="white"/>
<rect width="292.135" height="28.5448" transform="matrix(0.876147 -0.482044 2.31182e-08 1 256.047 426.366)" fill="#B22234"/>
<rect width="292.135" height="28.5448" transform="matrix(0.876147 -0.482044 2.31182e-08 1 256.047 454.911)" fill="white"/>
<rect width="292.135" height="28.5448" transform="matrix(0.876147 -0.482044 2.31182e-08 1 256.047 483.455)" fill="#B22234"/>
</g>
</g>
</g>
<defs>
<clipPath id="clip0_68_1974">
<rect width="512" height="512" fill="white"/>
</clipPath>
<clipPath id="clip1_68_1974">
<rect width="512" height="512" fill="white"/>
</clipPath>
<clipPath id="clip2_68_1974">
<rect width="512" height="512" fill="white"/>
</clipPath>
</defs>
</svg>
