<svg width="512" height="512" viewBox="0 0 512 512" fill="none" xmlns="http://www.w3.org/2000/svg">
<g clip-path="url(#clip0_68_1974)">
<g clip-path="url(#clip1_68_1974)">
<path d="M229.5 9.48935C245.898 0.0218097 266.102 0.0218166 282.5 9.48935L456.235 109.795C472.633 119.263 482.735 136.759 482.735 155.694V356.306C482.735 375.241 472.633 392.737 456.235 402.205L282.5 502.511C266.102 511.978 245.898 511.978 229.5 502.511L55.7656 402.205C39.3674 392.737 29.2656 375.241 29.2656 356.306V155.694C29.2656 136.759 39.3674 119.263 55.7656 109.795L229.5 9.48935Z" fill="white"/>
<path d="M29.2656 208.493L29.2656 249.786L363.714 56.3782L327.982 35.7483L29.2656 208.493Z" fill="#B22234"/>
<path d="M294.084 16.1775L282.5 9.48933C266.102 0.0217905 245.898 0.0217838 229.5 9.48932L55.7656 109.795C39.3674 119.263 29.2656 136.759 29.2656 155.694V169.319L294.084 16.1775Z" fill="#B22234"/>
<path d="M29.2656 356.306V288.96L397.612 75.949L433.344 96.5789L255.888 199.2V238.373L465.884 116.934C474.831 125.279 480.663 136.52 482.278 148.747L50.2807 398.567C37.1443 388.628 29.2656 373.028 29.2656 356.306Z" fill="#B22234"/>
<path d="M482.734 187.657V155.58L482.735 155.694V356.306C482.735 375.241 472.633 392.737 456.235 402.205L282.5 502.511C266.102 511.978 245.898 511.978 229.5 502.511L223.03 498.775L482.734 348.591V309.417L189.133 479.204L153.401 458.575L482.734 268.124V228.951L119.503 439.004L83.7709 418.374L482.734 187.657Z" fill="#B22234"/>
<path d="M55.7656 109.795C39.3674 119.263 29.2656 136.759 29.2656 155.694V356.306C29.2656 360.423 29.7432 364.471 30.6591 368.385L256 238.284L256 2.38867C246.853 2.38867 237.706 4.7538 229.509 9.48407C229.506 9.48582 229.503 9.48757 229.5 9.48932L55.7656 109.795Z" fill="#3C3B6E"/>
</g>
</g>
<defs>
<clipPath id="clip0_68_1974">
<rect width="512" height="512" fill="white"/>
</clipPath>
<clipPath id="clip1_68_1974">
<rect width="512" height="512" fill="white"/>
</clipPath>
</defs>
</svg>
