<svg width="180" height="180" viewBox="0 0 180 180" fill="none" xmlns="http://www.w3.org/2000/svg">
<g clip-path="url(#clip0_62_1896)">
<path d="M10.2886 73.2983L10.2886 87.8155L127.868 19.8205L115.306 12.5678L10.2886 73.2983Z" fill="black"/>
<path d="M103.389 5.68741L99.3163 3.33611C93.5513 0.00767598 86.4485 0.00767364 80.6835 3.3361L19.605 38.5998C13.84 41.9282 10.2886 48.0794 10.2886 54.7363V59.5264L103.389 5.68741Z" fill="black"/>
<path d="M10.2886 125.264V101.587L139.785 26.7008L152.347 33.9535L89.9606 70.0312V83.8031L163.787 41.1098C166.933 44.0434 168.983 47.9953 169.551 52.2941L17.6767 140.121C13.0584 136.627 10.2886 131.143 10.2886 125.264Z" fill="black"/>
<path d="M169.711 65.9732V54.6962L169.711 54.7363V125.264C169.711 131.921 166.16 138.072 160.395 141.4L99.3163 176.664C93.5513 179.992 86.4485 179.992 80.6835 176.664L78.409 175.351L169.711 122.552V108.78L66.4918 168.47L53.9298 161.218L169.711 94.2624V80.4904L42.0126 154.337L29.4506 147.085L169.711 65.9732Z" fill="black"/>
<path d="M19.605 38.5998C13.84 41.9282 10.2886 48.0794 10.2886 54.7363V125.264C10.2886 126.711 10.4565 128.135 10.7785 129.51L89.9999 83.7718L89.9999 0.839783C86.7842 0.839783 83.5684 1.67127 80.6867 3.33426C80.6856 3.33487 80.6846 3.33549 80.6835 3.33611L19.605 38.5998Z" fill="black"/>
</g>
<defs>
<clipPath id="clip0_62_1896">
<rect width="180" height="180" fill="white"/>
</clipPath>
</defs>
</svg>
