<svg enable-background="new 0 0 700 700" viewBox="0 0 700 700" xmlns="http://www.w3.org/2000/svg" xmlns:xlink="http://www.w3.org/1999/xlink"><clipPath id="a"><path d="m0 0h700v700h-700z"/></clipPath><g clip-path="url(#a)"><path clip-rule="evenodd" d="m0 191.9 350.1-192.6v192.6l349.9-192.5v39l-349.9 192.5v39l349.9-192.5v39l-349.9 192.6v-36.8l-350.1 192.6zm32.4 4.7-3.2-9-3.2 12.5-10.3 5.7 8.3 2.1-3.2 12.5 8.3-11.2 8.3 2.1-3.2-9 8.3-11.2zm-3.2 45.5 3.2 9 10.3-5.7-8.3 11.2 3.2 9-8.3-2.1-8.3 11.2 3.2-12.5-8.3-2.1 10.3-5.7zm3.2 63.6-3.2-9-3.2 12.5-10.3 5.7 8.3 2.1-3.2 12.5 8.3-11.2 8.3 2.1-3.2-9 8.3-11.2zm-3.2 45.6 3.2 9 10.3-5.7-8.3 11.2 3.2 9-8.3-2.1-8.3 11.2 3.2-12.5-8.3-2.1 10.3-5.7zm3.2 63.6-3.2-9-3.2 12.5-10.3 5.7 8.3 2.1-3.2 12.5 8.3-11.2 8.3 2.1-3.2-9 8.3-11.2zm25.9-216.1 3.2 9 10.3-5.7-8.3 11.2 3.2 9-8.3-2.1-8.4 11.4 3.2-12.5-8.3-2.1 10.3-5.7zm3.2 63.6-3.2-9-3.2 12.5-10.3 5.7 8.3 2.1-3.1 12.4 8.3-11.2 8.3 2.1-3.2-9 8.3-11.2zm-3.2 45.5 3.2 9 10.3-5.7-8.3 11.2 3.2 9-8.3-2.1-8.4 11.4 3.2-12.5-8.3-2.1 10.3-5.7zm3.2 63.6-3.2-9-3.1 12.5-10.3 5.7 8.3 2.1-3.2 12.5 8.3-11.2 8.3 2.1-3.2-9 8.3-11.2zm26-216.1 3.2 9 10.3-5.7-8.3 11.3 3.2 9-8.3-2.1-8.3 11.2 3.2-12.5-8.3-2.1 10.3-5.7zm3.2 63.6-3.2-9-3.2 12.5-10.3 5.7 8.3 2.1-3.2 12.5 8.3-11.2 8.3 2.1-3.2-9 8.3-11.2zm-3.2 45.6 3.2 9 10.3-5.6-8.3 11.2 3.2 9-8.3-2.1-8.3 11.2 3.2-12.5-8.3-2.1 10.3-5.7zm3.2 63.6-3.2-9-3.2 12.5-10.3 5.7 8.3 2.1-3.1 12.5 8.3-11.2 8.3 2.1-3.2-9 8.3-11.2zm-3.2 45.6 3.2 9 10.3-5.7-8.3 11.2 3.2 9-8.3-2.1-8.3 11.2 3.2-12.5-8.5-1.9 10.3-5.7zm32.4-198.1-3.2-9-3.2 12.5-10.3 5.7 8.3 2.1-3.2 12.5 8.3-11.2 8.3 2.1-3.2-9 8.3-11.2zm-3.2 45.6 3.2 9 10.3-5.7-8.3 11.2 3.2 9-8.3-2.1-8.3 11.2 3.2-12.5-8.3-2.1 10.3-5.7zm3.2 63.6-3.2-9-3.2 12.5-10.3 5.7 8.3 2.1-3.2 12.5 8.3-11.2 8.3 2.1-3.2-9 8.3-11.2zm-3.2 45.5 3.2 9 10.3-5.7-8.3 11.2 3.2 9-8.3-2.1-8.3 11.2 3.2-12.5-8.3-2.1 10.3-5.7zm32.3-198-3.2-9-3.2 12.5-10.3 5.7 8.3 2.1-3.2 12.5 8.3-11.2 8.3 2.1-3.2-9 8.3-11.2zm-3.1 45.5 3.2 9 10.3-5.7-8.3 11.2 3.2 9-8.3-2.1-8.3 11.2 3.2-12.5-8.3-2.1 10.3-5.7zm3.1 63.6-3.2-9-3.2 12.5-10.3 5.7 8.3 2.1-3.2 12.5 8.3-11.2 8.3 2.1-3.2-9 8.3-11.2zm-3.1 45.6 3.2 9 10.3-5.7-8.3 11.2 3.2 9-8.3-2.1-8.3 11.2 3.2-12.5-8.3-2.1 10.3-5.7zm3.1 63.6-3.2-9-3.2 12.5-10.3 5.7 8.3 2.1-3.2 12.5 8.3-11.2 8.3 2.1-3.2-9 8.3-11.2zm26-216.1 3.2 9 10.3-5.7-8.3 11.2 3.2 9-8.3-2.1-8.3 11.2 3.2-12.5-8.3-2.1 10.3-5.7zm3.2 63.6-3.2-9-3.2 12.5-10.3 5.7 8.3 2.1-3.2 12.5 8.3-11.2 8.3 2.1-3.2-9 8.3-11.2zm-3.2 45.5 3.2 9 10.3-5.7-8.3 11.2 3.2 9-8.3-2.1-8.3 11.2 3.2-12.5-8.3-2.1 10.3-5.7zm3.2 63.6-3.2-9-3.2 12.5-10.3 5.7 8.3 2.1-3.2 12.5 8.3-11.2 8.3 2.1-3.2-9 8.3-11.2zm26-216.1 3.2 9 10.3-5.7-8.3 11.2 3.2 9-8.3-2.1-8.3 11.2 3.2-12.5-8.3-2.1 10.3-5.7zm3.2 63.6-3.2-9-3.2 12.5-10.3 5.7 8.3 2.1-3.2 12.5 8.3-11.2 8.3 2.1-3.2-9 8.3-11.2zm-3.2 45.6 3.2 9 10.3-5.7-8.3 11.2 3.2 9-8.3-2.1-8.3 11.2 3.2-12.5-8.3-2.1 10.3-5.7zm3.2 63.6-3.2-9-3.2 12.5-10.3 5.7 8.3 2.1-3.2 12.5 8.3-11.2 8.3 2.1-3.2-9 8.3-11.2zm-3.2 45.6 3.2 9 10.3-5.7-8.3 11.2 3.2 9-8.3-2.1-8.3 11.2 3.2-12.5-8.3-2.1 10.3-5.7zm32.4-198.1-3.2-9-3.2 12.5-10.3 5.7 8.3 2.1-3.2 12.5 8.3-11.2 8.3 2.1-3.2-9 8.3-11.2zm-3.2 45.6 3.2 9 10.3-5.7-8.3 11.2 3.2 9-8.3-2.1-8.3 11.2 3.2-12.5-8.3-2.1 10.3-5.7zm3.2 63.6-3.2-9-3.2 12.5-10.3 5.7 8.3 2.1-3.2 12.5 8.3-11.2 8.3 2.1-3.2-9 8.3-11.2zm-3.2 45.5 3.2 9 10.3-5.7-8.3 11.2 3.2 9-8.3-2.1-8.5 11.4 3.2-12.5-8.3-2.1 10.3-5.7zm32.3-198-3.2-9-3.2 12.5-10.3 5.7 8.3 2.1-3.2 12.5 8.3-11.2 8.3 2.1-3.2-9 8.3-11.2zm-3.2 45.5 3.2 9 10.3-5.7-8.3 11.2 3.2 9-8.3-2.1-8.3 11.2 3.2-12.5-8.3-2.1 10.3-5.7zm3.2 63.6-3.2-9-3.2 12.5-10.3 5.7 8.3 2.1-3.2 12.5 8.3-11.2 8.3 2.1-3.2-9 8.3-11.2zm-3.2 45.6 3.2 9 10.3-5.7-8.3 11.2 3.2 9-8.3-2.1-8.3 11.2 3.2-12.5-8.3-2.1 10.3-5.7zm3.2 63.6-3.2-9-3.2 12.5-10.3 5.7 8.3 2.1-3.2 12.5 8.3-11.2 8.3 2.1-3.2-9 8.3-11.2zm26-216.1 3.2 9 10.3-5.7-8.3 11.3 3.2 9-8.3-2.1-8.3 11.2 3.2-12.5-8.3-2.1 10.3-5.7zm3.2 63.6-3.2-9-3.2 12.5-10.3 5.7 8.3 2.1-3.2 12.5 8.3-11.2 8.3 2.1-3.2-9 8.3-11.2zm-3.2 45.5 3.2 9 10.3-5.7-8.3 11.2 3.2 9-8.3-2.1-8.3 11.2 3.2-12.5-8.3-2.1 10.3-5.7zm3.2 63.6-3.2-9-3.2 12.5-10.3 5.7 8.3 2.1-3.2 12.5 8.3-11.2 8.3 2.1-3.2-9 8.3-11.2zm26-216.1 3.2 9 10.3-5.7-8.4 11.3 3.2 9-8.3-2.1-8.3 11.2 3.2-12.5-8.3-2.1 10.3-5.7zm3.2 63.6-3.2-9-3.2 12.5-10.3 5.7 8.3 2.1-3.2 12.5 8.3-11.2 8.3 2.1-3.2-9 8.3-11.2zm-3.2 45.6 3.2 9 10.3-5.7-8.3 11.2 3.2 9-8.3-2.1-8.3 11.2 3.2-12.5-8.3-2.1 10.3-5.7zm3.2 63.6-3.2-9-3.2 12.5-10.3 5.7 8.3 2.1-3.2 12.5 8.3-11.2 8.3 2.1-3.2-9 8.3-11.2zm-3.2 45.6 3.2 9 10.3-5.7-8.4 11.3 3.2 9-8.3-2.1-8.3 11.2 3.2-12.5-8.3-2.1 10.3-5.7z" fill-rule="evenodd"/><path d="m0 504.9 350-192.6v39l-350 192.6z"/><path d="m0 582.9 350-192.6v39l-350 192.6z"/><path d="m350 468.4-350 192.6v39l350-192.6z"/><path d="m350.1 348 349.9-192.5v39l-349.9 192.5z"/><path d="m700 233.5-349.9 192.5v39l349.9-192.5z"/><path d="m350.1 504.9 349.9-192.6v39l-349.9 192.6z"/><path d="m700 390.4-349.9 192.5v39l349.9-192.5z"/><path d="m350.1 661 349.9-192.6v39l-349.9 192.6z"/></g></svg>