<svg fill="none" height="180" viewBox="0 0 180 180" width="180" xmlns="http://www.w3.org/2000/svg" xmlns:xlink="http://www.w3.org/1999/xlink"><clipPath id="a"><path d="m0 0h180v180h-180z"/></clipPath><clipPath id="b"><path d="m0 0h180v180h-180z"/></clipPath><clipPath id="c"><path d="m0 0h180v180h-180z"/></clipPath><g clip-path="url(#a)"><g clip-path="url(#b)"><g clip-path="url(#c)" fill="#000"><path d="m0 0h102.722v10.0353h-102.722z" transform="matrix(.876147 -.482044 .00000002 1 0 49.3408)"/><path d="m0 0h102.722v10.0353h-102.722z" transform="matrix(.876147 -.482044 .00000002 1 0 69.4114)"/><path d="m0 0h102.722v10.0353h-102.722z" transform="matrix(.876147 -.482044 .00000002 1 0 89.4819)"/><path d="m0 0h102.722v10.0353h-102.722z" transform="matrix(.876147 -.482044 .00000002 1 0 109.552)"/><path d="m0 0h102.722v10.0353h-102.722z" transform="matrix(.876147 -.482044 .00000002 1 0 129.824)"/><path d="m0 0h102.722v10.0353h-102.722z" transform="matrix(.876147 -.482044 .00000002 1 0 149.894)"/><path d="m0 0h102.722v10.0353h-102.722z" transform="matrix(.876147 -.482044 .00000002 1 0 169.965)"/><path d="m90.0166-.185009-90.0166 49.525809.00000162 70.1782 90.01659838-49.5257z"/><path d="m0 0h102.704v10.0353h-102.704z" transform="matrix(.876147 -.482044 .00000002 1 90.0166 49.3408)"/><path d="m0 0h102.704v10.0353h-102.704z" transform="matrix(.876147 -.482044 .00000002 1 90.0166 69.4114)"/><path d="m0 0h102.704v10.0353h-102.704z" transform="matrix(.876147 -.482044 .00000002 1 90.0166 89.4819)"/><path d="m0 0h102.704v10.0353h-102.704z" transform="matrix(.876147 -.482044 .00000002 1 90.0166 109.552)"/><path d="m0 0h102.704v10.0353h-102.704z" transform="matrix(.876147 -.482044 .00000002 1 90.0166 129.824)"/><path d="m0 0h102.704v10.0353h-102.704z" transform="matrix(.876147 -.482044 .00000002 1 90.0166 149.894)"/><path d="m0 0h102.704v10.0353h-102.704z" transform="matrix(.876147 -.482044 .00000002 1 90.0166 169.965)"/></g></g></g></svg>