<?xml version="1.0" standalone="no"?>
<!DOCTYPE svg PUBLIC "-//W3C//DTD SVG 20010904//EN"
 "http://www.w3.org/TR/2001/REC-SVG-20010904/DTD/svg10.dtd">
<svg version="1.0" xmlns="http://www.w3.org/2000/svg"
 width="700.000000pt" height="700.000000pt" viewBox="0 0 700.000000 700.000000"
 preserveAspectRatio="xMidYMid meet">
<metadata>
Created by potrace 1.14, written by Peter Selinger 2001-2017
</metadata>
<g transform="translate(0.000000,700.000000) scale(0.100000,-0.100000)"
fill="#000000" stroke="none">
<path d="M1743 6042 l-1742 -957 -1 -1368 0 -1368 43 25 c106 61 3447 1896
3452 1896 3 0 5 -79 5 -175 0 -96 3 -175 8 -175 4 0 790 431 1747 958 l1740
958 3 193 c2 153 0 192 -10 188 -7 -3 -794 -435 -1748 -960 l-1735 -955 -3
196 c-1 108 1 198 5 200 5 1 791 434 1748 960 l1740 958 3 193 c2 153 0 192
-10 188 -7 -3 -794 -435 -1748 -960 l-1735 -955 -3 959 c-1 527 -5 959 -10
959 -4 0 -791 -431 -1749 -958z m1486 637 l12 -40 44 25 c24 14 46 26 50 26 3
0 -13 -24 -35 -54 -40 -53 -40 -53 -25 -89 22 -53 20 -56 -25 -45 -23 6 -42 9
-44 7 -1 -2 -20 -26 -41 -54 -28 -37 -36 -43 -31 -25 3 14 9 42 12 62 6 36 6
37 -32 44 -37 7 -37 7 -17 23 11 9 34 23 51 32 25 14 32 27 43 73 7 31 15 56
19 56 4 0 12 -18 19 -41z m-524 -333 c25 14 45 23 45 19 0 -3 -16 -27 -35 -52
-40 -53 -40 -52 -20 -100 8 -20 14 -38 12 -39 -2 -2 -21 1 -42 7 -37 10 -40 9
-59 -17 -12 -16 -31 -40 -43 -54 l-23 -25 15 50 c20 69 20 72 -20 79 -19 4
-35 10 -35 14 0 4 21 18 47 32 44 23 48 29 62 85 l15 60 18 -43 19 -42 44 26z
m225 -76 c0 -5 4 -20 10 -35 l10 -25 52 26 c29 15 48 20 42 13 -6 -8 -25 -33
-42 -55 -32 -42 -32 -42 -17 -84 8 -24 14 -45 12 -46 -2 -2 -20 1 -41 7 -21 6
-39 9 -40 7 -2 -2 -20 -25 -41 -53 -42 -55 -40 -58 -19 43 5 26 3 29 -33 38
l-38 9 52 30 c48 28 52 32 63 87 7 32 17 55 21 52 5 -3 9 -9 9 -14z m295 -130
c9 -43 20 -45 70 -15 25 14 45 24 45 22 0 -2 -18 -27 -39 -56 -39 -53 -40 -53
-25 -93 8 -23 12 -43 10 -45 -2 -3 -20 0 -40 5 -35 10 -36 9 -72 -39 -20 -28
-38 -48 -41 -45 -2 2 1 23 7 46 13 49 8 70 -17 70 -45 1 -43 17 6 44 46 25 51
30 62 81 14 62 24 69 34 25z m-1150 -138 c1 -1 24 10 50 25 51 28 51 23 2 -40
-30 -38 -30 -47 -11 -114 6 -21 4 -22 -27 -13 -47 14 -43 15 -84 -40 -21 -28
-39 -49 -41 -48 -2 2 3 28 11 58 8 30 13 55 12 56 -1 1 -20 6 -42 11 l-40 9
51 28 c48 26 52 31 69 89 l17 62 16 -40 c8 -22 16 -41 17 -43z m285 -99 c0
-18 9 -16 58 12 23 13 42 21 42 18 0 -3 -17 -28 -37 -55 l-36 -50 16 -45 17
-45 -28 6 c-15 4 -34 9 -43 12 -10 3 -27 -12 -48 -41 -44 -62 -51 -63 -36 -3
8 28 12 55 10 59 -3 4 -21 10 -42 14 l-37 7 52 30 c44 25 53 36 62 71 23 87
22 85 36 52 7 -16 13 -36 14 -42z m290 -110 c0 -19 18 -16 57 8 19 12 36 19
39 17 2 -3 -12 -26 -32 -52 l-36 -47 16 -45 15 -45 -43 6 c-43 7 -43 6 -80
-44 -21 -28 -39 -51 -41 -51 -2 0 4 25 12 56 15 60 10 73 -29 74 -34 0 -27 20
14 41 52 26 52 26 68 97 l13 57 13 -30 c7 -16 13 -36 14 -42z m-1180 -53 c0
-5 4 -20 10 -35 l10 -25 52 26 c29 15 48 20 42 13 -6 -8 -25 -33 -42 -55 -32
-42 -32 -42 -17 -84 8 -24 14 -45 12 -46 -2 -2 -19 1 -38 6 -37 11 -39 10 -97
-65 -23 -29 -23 -29 -18 -5 21 92 21 95 -21 106 l-38 9 52 30 c48 28 52 32 63
87 7 32 17 55 21 52 5 -3 9 -9 9 -14z m1460 -20 c0 -5 4 -20 10 -34 l9 -25 46
25 c25 14 45 23 45 20 0 -3 -16 -28 -35 -55 -35 -48 -35 -48 -20 -91 8 -23 15
-44 15 -45 0 -2 -19 2 -41 8 -39 10 -43 9 -61 -16 -10 -14 -28 -36 -39 -49
l-20 -23 6 29 c19 90 20 84 -19 91 -20 4 -36 10 -36 14 0 3 21 17 47 31 44 23
48 29 61 82 8 32 18 55 23 52 5 -3 9 -9 9 -14z m-1160 -115 c6 -19 14 -35 17
-35 4 0 26 11 50 25 23 14 43 24 43 23 0 -2 -18 -28 -39 -58 -39 -54 -39 -55
-24 -93 9 -21 13 -40 10 -43 -3 -3 -21 -1 -41 4 -35 10 -36 9 -72 -39 -20 -28
-38 -48 -40 -47 -2 2 3 27 10 56 l14 52 -41 11 c-44 12 -43 13 25 49 32 17 38
27 49 75 7 30 16 55 20 55 4 0 13 -16 19 -35z m1460 -20 l12 -36 45 26 c26 14
47 24 49 22 2 -1 -15 -26 -37 -54 l-39 -52 16 -41 c19 -48 16 -54 -20 -40 -43
16 -49 13 -85 -40 -19 -28 -36 -48 -38 -46 -3 2 0 21 6 43 17 62 15 70 -26 80
l-38 9 52 30 c49 27 52 32 63 86 14 63 23 66 40 13z m-1149 -125 c5 0 23 9 41
20 51 31 53 24 12 -31 -35 -48 -36 -52 -25 -88 16 -53 16 -53 -31 -46 -43 6
-43 5 -77 -45 -19 -28 -35 -49 -37 -47 -2 1 3 27 11 57 8 30 15 56 15 57 0 1
-16 5 -35 9 -19 3 -37 10 -40 14 -2 4 18 17 45 30 35 16 50 30 55 49 3 14 11
44 17 66 l11 40 14 -42 c8 -24 19 -43 24 -43z m-1181 -87 c0 -17 4 -16 50 7
22 11 42 20 45 20 4 0 -10 -23 -30 -50 l-37 -50 16 -46 15 -46 -27 6 c-15 4
-34 9 -42 11 -9 3 -30 -16 -54 -48 -36 -49 -38 -50 -33 -21 3 18 9 43 13 58 5
20 2 27 -12 32 -58 18 -58 18 -7 50 45 28 50 35 63 90 l13 59 13 -30 c7 -16
13 -36 14 -42z m1460 -21 c0 -8 16 -4 51 14 54 27 54 23 6 -39 -28 -36 -29
-41 -18 -76 16 -53 15 -54 -28 -46 -37 6 -39 5 -76 -44 -20 -28 -38 -51 -40
-51 -2 0 3 24 11 53 18 69 19 65 -21 73 -19 3 -35 9 -35 13 0 3 20 17 45 30
37 20 47 31 56 65 22 85 21 84 35 51 7 -16 13 -36 14 -43z m-1152 -102 c4 0
22 9 41 21 18 11 35 19 37 17 2 -2 -13 -26 -32 -54 -35 -50 -35 -50 -20 -92
l16 -43 -44 6 c-43 7 -44 6 -76 -39 -19 -25 -35 -44 -37 -42 -2 2 1 25 8 51
13 50 5 65 -33 65 -34 0 -26 18 21 43 46 26 49 29 61 89 l14 63 18 -43 c10
-23 22 -42 26 -42z m1497 3 c25 14 45 23 45 20 0 -3 -16 -27 -36 -54 l-36 -49
16 -46 c14 -42 14 -45 -2 -40 -66 20 -67 20 -106 -36 -42 -57 -41 -59 -20 40
5 26 3 29 -33 38 l-38 9 51 31 c47 29 51 35 64 90 l13 59 18 -43 19 -44 45 25z
m-1226 -82 l11 -40 43 25 c23 13 46 24 50 24 4 0 -11 -24 -33 -54 -40 -53 -40
-53 -25 -89 8 -20 15 -39 15 -42 0 -4 -19 -3 -43 0 -43 7 -43 7 -81 -47 -34
-47 -37 -49 -32 -23 20 98 21 93 -10 101 -48 11 -48 16 2 43 45 24 50 30 64
84 8 31 17 57 20 57 4 0 12 -18 19 -39z m1456 -11 c4 -16 10 -32 15 -35 4 -3
30 7 56 22 27 15 44 20 38 13 -6 -8 -25 -34 -43 -58 l-33 -42 16 -41 c9 -23
15 -44 12 -46 -2 -2 -20 0 -40 6 -36 9 -37 9 -73 -39 -20 -27 -39 -48 -41 -46
-2 2 2 23 8 46 13 49 8 70 -17 70 -10 0 -24 4 -32 9 -11 7 -2 15 36 34 48 25
50 28 63 86 13 64 24 70 35 21z m-2610 -118 c2 -2 24 7 49 21 26 14 46 23 46
21 0 -3 -16 -26 -35 -51 -39 -51 -40 -56 -24 -102 6 -18 10 -34 7 -36 -2 -2
-20 0 -41 4 -36 9 -37 8 -73 -41 -19 -28 -37 -48 -39 -46 -2 2 2 27 9 56 l14
52 -41 11 -41 11 52 30 c44 25 53 36 62 71 23 86 22 85 37 43 7 -22 15 -41 18
-44z m1507 4 l51 26 -38 -51 c-38 -53 -39 -59 -19 -128 6 -21 4 -22 -27 -13
-47 14 -45 15 -86 -40 -21 -28 -39 -47 -41 -42 -1 4 4 29 12 55 16 52 13 56
-49 69 -16 3 -9 10 32 33 47 27 53 34 64 80 17 71 21 74 37 27 l14 -42 50 26z
m1393 4 c9 -41 18 -44 65 -20 22 11 40 17 40 13 0 -5 -16 -28 -34 -52 -33 -44
-33 -46 -20 -84 8 -22 14 -41 14 -44 0 -2 -19 -1 -43 2 -42 6 -43 6 -76 -40
-18 -25 -35 -44 -38 -42 -2 3 2 28 11 55 l15 51 -32 7 c-52 11 -51 15 1 45 47
27 51 32 63 84 14 62 24 69 34 25z m-2602 -120 c7 0 26 9 42 20 47 31 50 24 9
-31 -35 -48 -36 -52 -25 -88 15 -53 16 -52 -28 -45 -38 6 -40 5 -77 -45 -21
-28 -39 -49 -41 -48 -1 2 4 27 12 57 15 57 10 70 -27 70 -34 0 -27 20 14 41
52 26 52 26 68 97 l13 57 14 -42 c8 -24 20 -43 26 -43z m1452 -18 c2 -2 25 8
51 23 49 29 49 26 1 -42 -28 -40 -29 -45 -19 -82 16 -50 15 -53 -5 -47 -10 2
-28 7 -39 11 -18 4 -29 -4 -59 -45 -21 -28 -39 -49 -41 -48 -2 2 3 28 11 57
10 39 11 53 2 56 -7 2 -25 7 -41 12 l-28 9 51 27 c43 24 52 34 61 70 23 86 22
85 37 43 7 -22 15 -42 18 -44z m-1185 -42 c0 -5 4 -20 10 -34 l9 -25 46 25
c25 14 45 23 45 19 0 -3 -16 -27 -35 -52 -40 -53 -40 -52 -20 -99 l15 -36 -44
6 c-43 7 -44 7 -81 -44 -20 -27 -38 -50 -40 -50 -2 0 3 24 11 53 18 69 19 65
-21 73 -19 3 -35 9 -35 13 0 3 20 17 45 30 42 22 47 30 62 82 9 32 20 56 25
53 4 -3 8 -9 8 -14z m1477 -69 c2 -3 21 5 42 17 21 12 42 22 46 22 4 0 -10
-23 -31 -51 l-38 -52 16 -43 c17 -48 14 -50 -37 -35 -29 8 -33 5 -70 -45 -21
-30 -40 -53 -41 -51 -2 2 3 27 11 57 8 30 15 56 15 57 0 1 -19 7 -42 14 l-43
11 46 23 c57 30 64 38 79 104 l13 54 15 -39 c8 -21 17 -41 19 -43z m-1187 -41
c0 -5 5 -21 10 -35 l10 -27 46 26 c26 14 48 26 51 26 2 0 -15 -24 -37 -54
l-40 -53 15 -43 c8 -24 14 -45 12 -46 -2 -2 -20 1 -41 7 -21 6 -39 9 -40 7 -2
-2 -20 -25 -41 -53 -42 -55 -40 -58 -19 43 5 26 3 29 -33 38 l-38 9 51 31 c46
29 51 36 63 88 7 31 17 54 22 51 5 -4 9 -10 9 -15z m1465 -40 c8 -36 13 -36
66 -9 43 21 43 21 -4 -47 -27 -40 -27 -41 -12 -83 l15 -43 -44 6 c-43 7 -44 7
-81 -44 -20 -27 -38 -50 -40 -50 -2 0 3 24 11 53 18 69 19 65 -21 73 -19 3
-35 9 -35 13 0 3 20 18 45 31 41 22 47 31 61 82 18 61 28 66 39 18z m-1170
-90 c4 -16 11 -32 16 -35 5 -3 30 7 56 22 l48 28 -42 -59 c-41 -58 -41 -59
-27 -99 8 -22 12 -42 10 -44 -2 -3 -20 0 -40 6 -36 9 -37 9 -73 -39 -20 -27
-39 -48 -41 -46 -2 2 2 23 8 46 13 49 8 70 -17 70 -10 0 -24 4 -32 9 -11 7 -2
15 36 34 48 25 50 28 63 86 13 64 24 70 35 21z m1455 0 c0 -5 5 -21 10 -35
l10 -27 44 26 c25 14 47 26 51 26 3 0 -13 -24 -35 -54 l-40 -53 15 -43 c8 -23
15 -44 15 -46 0 -1 -15 2 -32 7 -50 14 -52 13 -92 -43 -41 -58 -41 -58 -20 41
6 28 4 30 -32 37 -37 7 -37 7 -17 23 11 9 34 23 50 32 23 13 32 27 42 73 7 31
17 54 22 51 5 -4 9 -10 9 -15z m-2556 -113 c51 26 51 22 3 -40 -30 -38 -30
-47 -11 -114 6 -21 4 -22 -27 -13 -47 14 -45 15 -86 -40 -20 -27 -38 -48 -40
-47 -1 2 4 27 12 57 8 30 13 55 12 56 -1 1 -20 6 -42 11 l-40 9 52 29 c48 27
53 34 64 80 16 71 20 73 38 28 l16 -41 49 25z m1390 11 c12 -48 20 -51 64 -29
23 12 44 21 47 21 3 0 -12 -23 -34 -52 -39 -51 -39 -52 -25 -91 8 -22 14 -41
14 -43 0 -2 -19 -1 -42 2 -42 5 -44 4 -78 -45 -19 -27 -36 -48 -38 -46 -2 1 3
28 11 58 l15 56 -32 7 c-50 11 -50 15 2 45 47 27 51 32 63 84 13 59 23 69 33
33z m1462 -28 c9 -22 17 -40 19 -40 1 0 24 12 51 27 27 15 44 20 38 13 -6 -8
-25 -34 -42 -56 -32 -42 -32 -42 -17 -84 8 -24 14 -45 12 -46 -2 -2 -19 1 -38
6 -37 11 -39 10 -97 -65 -23 -29 -23 -29 -18 -5 21 92 21 95 -21 106 l-38 9
51 29 c49 27 52 30 64 87 7 32 14 59 16 59 2 0 11 -18 20 -40z m-2616 -107 c0
-18 7 -16 57 12 23 14 43 23 43 20 0 -3 -16 -27 -35 -52 -40 -52 -41 -57 -19
-108 l15 -37 -28 6 c-15 4 -35 9 -44 12 -10 3 -27 -12 -48 -41 -45 -62 -51
-63 -35 -3 7 29 11 55 8 58 -3 3 -22 10 -41 15 l-36 10 51 28 c44 24 53 34 62
70 23 87 22 85 36 52 7 -16 13 -36 14 -42z m1460 -21 c0 -10 14 -6 46 12 26
14 49 26 51 26 3 0 -12 -23 -32 -50 -37 -51 -38 -57 -19 -119 7 -22 6 -23 -34
-16 -40 6 -41 6 -78 -44 -21 -28 -39 -49 -41 -48 -1 2 4 27 12 57 8 30 15 56
15 57 0 1 -16 5 -35 9 -19 3 -35 10 -35 14 0 4 20 18 45 31 39 21 45 29 56 74
6 27 14 54 17 60 6 10 31 -40 32 -63z m-1170 -89 c0 -18 14 -16 52 7 50 31 53
24 13 -31 l-36 -51 15 -44 15 -45 -37 7 c-20 4 -39 8 -41 10 -2 2 -21 -19 -42
-47 -21 -29 -40 -54 -43 -56 -2 -3 2 21 10 52 8 31 14 58 12 60 -2 2 -19 10
-38 17 l-35 15 41 21 c52 27 59 36 74 102 l13 55 13 -30 c7 -16 13 -36 14 -42z
m1460 -20 c0 -18 5 -17 56 13 24 14 44 23 44 19 0 -3 -16 -27 -35 -52 -40 -53
-39 -48 -20 -102 13 -39 13 -42 -3 -37 -67 20 -68 20 -106 -33 -21 -28 -39
-51 -41 -51 -2 0 3 25 12 56 8 31 13 57 11 59 -2 1 -21 7 -43 12 l-40 9 52 27
c46 24 54 32 63 69 23 88 22 86 36 53 7 -16 13 -36 14 -42z m-1170 -90 c0 -18
15 -16 60 7 22 11 40 16 40 11 0 -5 -4 -12 -8 -15 -5 -3 -21 -23 -36 -44 -26
-37 -26 -40 -11 -81 l15 -42 -44 6 c-43 7 -44 6 -76 -40 -17 -25 -34 -44 -36
-42 -3 3 0 26 7 52 13 50 5 65 -33 65 -34 0 -26 16 21 43 46 25 49 30 61 89
l14 63 12 -30 c7 -17 13 -36 14 -42z m1460 -20 c0 -17 4 -16 50 7 22 11 42 20
45 20 4 0 -10 -23 -30 -50 l-37 -50 16 -46 15 -46 -27 6 c-15 4 -34 9 -42 11
-9 3 -30 -16 -54 -48 -36 -49 -38 -50 -33 -21 3 18 9 43 13 58 5 20 2 27 -12
32 -58 18 -58 18 -7 50 45 28 50 35 63 90 l13 59 13 -30 c7 -16 13 -36 14 -42z
m-1170 -79 l12 -35 43 26 c24 14 46 25 50 25 3 0 -13 -24 -35 -54 l-41 -54 15
-37 c22 -52 21 -54 -24 -43 -23 6 -42 9 -44 7 -1 -2 -20 -26 -41 -54 -28 -37
-36 -43 -31 -25 3 14 9 42 12 62 6 36 6 37 -32 44 -37 7 -37 7 -17 23 11 9 34
23 51 32 25 14 32 27 43 73 13 61 22 63 39 10z m-1156 -121 c2 -3 22 5 45 16
22 12 43 21 46 21 3 0 -11 -23 -31 -51 -35 -48 -36 -52 -25 -91 7 -22 10 -42
8 -45 -3 -2 -21 0 -40 5 -34 10 -35 9 -76 -46 -40 -55 -50 -58 -32 -10 25 70
24 76 -20 88 l-42 12 51 29 c44 25 53 35 62 71 23 87 22 86 37 44 7 -22 15
-41 17 -43z m1460 -20 c1 -2 24 8 49 23 26 14 47 24 47 22 0 -3 -18 -28 -39
-57 -38 -51 -39 -53 -25 -86 19 -45 18 -57 -3 -51 -10 2 -28 7 -40 11 -18 5
-29 -3 -59 -44 -21 -28 -39 -49 -41 -48 -1 2 4 27 12 56 10 39 11 53 2 56 -7
2 -25 7 -42 12 l-29 9 51 28 c47 26 53 33 64 80 16 71 21 75 36 31 7 -21 15
-40 17 -42z m-1160 -93 c6 0 26 9 45 21 18 11 35 18 37 16 2 -2 -12 -25 -32
-51 -35 -46 -36 -50 -25 -86 16 -52 15 -53 -28 -45 -39 6 -41 5 -77 -45 -20
-28 -38 -49 -40 -47 -2 1 3 27 11 57 8 30 15 56 15 57 0 1 -16 5 -35 9 -19 3
-35 10 -35 14 0 4 20 18 45 31 37 20 47 31 56 64 22 84 21 83 37 43 8 -21 20
-38 26 -38z m1451 -18 c2 -2 24 7 49 21 26 14 46 23 46 21 0 -3 -16 -26 -35
-51 -39 -51 -40 -56 -24 -102 14 -40 9 -45 -34 -33 -34 10 -35 9 -76 -46 -40
-55 -50 -58 -32 -10 26 70 24 76 -21 88 l-42 12 52 30 c44 25 53 36 62 71 23
86 22 85 37 43 7 -22 15 -41 18 -44z m-1120 -76 c25 14 45 23 45 19 0 -3 -16
-27 -35 -52 -40 -53 -39 -48 -20 -102 13 -39 13 -42 -3 -37 -65 19 -67 19
-100 -28 -46 -63 -52 -64 -36 -4 18 69 19 65 -21 72 -19 4 -35 10 -35 14 0 4
21 18 47 32 44 23 48 29 62 85 l15 60 18 -43 19 -42 44 26z m225 -76 c0 -5 4
-20 10 -35 l10 -25 52 26 c29 15 48 20 42 13 -6 -8 -25 -33 -43 -57 l-33 -42
16 -41 c9 -23 15 -44 12 -46 -2 -2 -21 0 -42 6 -21 6 -38 9 -39 8 -1 -1 -19
-24 -40 -52 -36 -48 -37 -49 -32 -19 3 18 9 43 13 58 5 20 2 27 -12 32 -61 19
-61 19 -7 49 49 28 52 32 63 87 7 32 17 55 21 52 5 -3 9 -9 9 -14z m295 -130
c9 -41 20 -45 62 -20 19 11 38 19 40 16 3 -3 -11 -25 -30 -51 -35 -46 -36 -46
-21 -87 8 -23 12 -43 10 -45 -2 -3 -20 0 -40 5 -35 10 -36 9 -72 -39 -20 -28
-38 -48 -41 -45 -2 2 1 23 7 46 13 49 8 70 -17 70 -45 1 -43 17 6 44 46 25 51
30 62 81 14 62 24 69 34 25z m-1151 -137 c1 -2 25 9 51 24 51 28 51 23 2 -40
-30 -38 -30 -46 -11 -116 7 -25 10 -24 -52 -6 -18 4 -29 -4 -59 -45 -21 -28
-39 -49 -41 -48 -2 2 3 28 11 57 10 39 11 53 2 56 -7 2 -25 8 -42 13 l-30 9
51 26 c49 25 53 30 64 79 17 73 22 77 37 33 7 -21 15 -40 17 -42z m286 -100
c0 -17 4 -16 50 7 22 11 42 20 45 20 4 0 -10 -23 -31 -51 l-37 -51 16 -45 17
-45 -33 8 c-17 4 -37 7 -44 8 -6 1 -30 -23 -52 -53 -23 -30 -41 -53 -41 -50 0
2 7 28 15 58 8 30 12 58 10 62 -3 4 -21 10 -42 14 l-37 7 52 30 c44 25 53 36
62 71 23 87 22 85 36 52 7 -16 13 -36 14 -42z m290 -110 c0 -19 20 -16 59 8
18 11 35 18 37 16 2 -2 -12 -25 -32 -51 l-36 -47 16 -45 15 -45 -43 6 c-43 7
-43 6 -80 -44 -21 -28 -39 -51 -41 -51 -2 0 4 25 12 56 15 60 10 73 -29 74
-34 0 -26 18 17 41 46 24 47 26 71 124 l7 30 13 -30 c7 -16 13 -36 14 -42z
m-566 -333 c6 0 25 9 41 20 47 31 50 24 9 -31 -35 -48 -36 -52 -25 -88 16 -53
16 -53 -31 -46 -43 6 -43 5 -77 -45 -19 -28 -35 -49 -37 -47 -2 1 3 27 11 57
8 30 15 56 15 57 0 1 -16 5 -35 9 -19 3 -35 10 -35 15 0 5 20 19 44 31 41 19
46 26 57 72 16 72 21 76 37 33 8 -20 20 -37 26 -37z"/>
<path d="M5245 4480 l-1740 -959 -3 176 c-2 133 -5 174 -15 170 -6 -3 -793
-435 -1747 -960 l-1735 -955 -3 -191 c-1 -105 1 -191 5 -191 5 1 791 432 1748
959 l1740 958 3 -174 c1 -95 6 -173 10 -173 4 0 790 431 1747 958 l1740 957 3
193 c1 105 -1 192 -5 191 -5 0 -791 -432 -1748 -959z"/>
<path d="M5245 3699 l-1740 -958 -3 175 c-2 134 -5 175 -15 171 -6 -3 -793
-435 -1747 -960 l-1735 -955 -3 -191 c-1 -105 1 -191 5 -191 5 1 791 432 1748
958 l1740 958 3 -177 2 -177 1750 962 1749 961 1 193 c0 105 -3 192 -7 191 -5
-1 -791 -433 -1748 -960z"/>
<path d="M5245 2910 l-1740 -958 -3 180 c-2 138 -5 179 -15 175 -6 -3 -793
-435 -1747 -960 l-1735 -955 -3 -197 -2 -196 42 25 c81 46 3431 1888 3444
1893 12 4 14 -26 14 -171 0 -97 3 -176 8 -176 4 1 790 432 1747 959 l1740 957
3 192 c1 106 -1 192 -5 191 -5 0 -791 -432 -1748 -959z"/>
<path d="M5245 2130 l-1740 -958 -3 -191 c-1 -105 1 -191 5 -191 5 0 791 431
1748 958 l1740 958 3 192 c1 106 -1 192 -5 191 -5 0 -791 -432 -1748 -959z"/>
<path d="M5245 1350 l-1740 -959 -3 -195 -2 -196 58 32 c33 18 820 451 1750
963 l1692 930 0 193 c0 105 -3 192 -7 191 -5 0 -791 -432 -1748 -959z"/>
</g>
</svg>
